<?xml version="1.0" encoding="UTF-8" standalone="no"?>
<!-- Created with Inkscape (http://www.inkscape.org/) -->

<svg
   xmlns:dc="http://purl.org/dc/elements/1.1/"
   xmlns:cc="http://creativecommons.org/ns#"
   xmlns:rdf="http://www.w3.org/1999/02/22-rdf-syntax-ns#"
   xmlns:svg="http://www.w3.org/2000/svg"
   xmlns="http://www.w3.org/2000/svg"
   xmlns:sodipodi="http://sodipodi.sourceforge.net/DTD/sodipodi-0.dtd"
   xmlns:inkscape="http://www.inkscape.org/namespaces/inkscape"
   width="210mm"
   height="297mm"
   viewBox="0 0 210 297"
   version="1.1"
   id="svg8"
   inkscape:version="0.92.4 (5da689c313, 2019-01-14)"
   sodipodi:docname="task9.svg">
  <defs
     id="defs2">
    <inkscape:path-effect
       effect="powerstroke"
       id="path-effect3743"
       is_visible="true"
       offset_points="0,0.13229166"
       sort_points="true"
       interpolator_type="CubicBezierJohan"
       interpolator_beta="0.2"
       start_linecap_type="zerowidth"
       linejoin_type="extrp_arc"
       miter_limit="4"
       end_linecap_type="zerowidth" />
    <inkscape:path-effect
       effect="powerstroke"
       id="path-effect3739"
       is_visible="true"
       offset_points="0,0.13229166"
       sort_points="true"
       interpolator_type="CubicBezierJohan"
       interpolator_beta="0.2"
       start_linecap_type="zerowidth"
       linejoin_type="extrp_arc"
       miter_limit="4"
       end_linecap_type="zerowidth" />
  </defs>
  <sodipodi:namedview
     id="base"
     pagecolor="#ffffff"
     bordercolor="#666666"
     borderopacity="1.0"
     inkscape:pageopacity="0.0"
     inkscape:pageshadow="2"
     inkscape:zoom="0.98994949"
     inkscape:cx="414.92378"
     inkscape:cy="545.4182"
     inkscape:document-units="mm"
     inkscape:current-layer="layer1"
     showgrid="false"
     inkscape:window-width="2736"
     inkscape:window-height="1699"
     inkscape:window-x="-13"
     inkscape:window-y="-13"
     inkscape:window-maximized="1" />
  <metadata
     id="metadata5">
    <rdf:RDF>
      <cc:Work
         rdf:about="">
        <dc:format>image/svg+xml</dc:format>
        <dc:type
           rdf:resource="http://purl.org/dc/dcmitype/StillImage" />
        <dc:title></dc:title>
      </cc:Work>
    </rdf:RDF>
  </metadata>
  <g
     inkscape:label="Layer 1"
     inkscape:groupmode="layer"
     id="layer1">
    <path
       style="fill:#000000;fill-rule:nonzero;stroke:none;stroke-width:0.26458332px;stroke-linecap:butt;stroke-linejoin:miter;stroke-opacity:1"
       d="M 427.95377,-397.61271 C 359.1999,-309.58205 152.9383,-45.490069 84.184429,42.540592 Z M 84.392951,42.703452 C 153.14682,-45.32721 359.40842,-309.41919 428.16229,-397.44986 Z"
       id="path3741"
       inkscape:connector-curvature="0"
       inkscape:path-effect="#path-effect3743"
       inkscape:original-d="M 84.28869,42.622022 64.066964,68.513393 46.869048,65.86756 v 24.190475 l 43.845236,53.105655 8.315476,2.64583 20.5997,19.46577 41.19941,-4.34672 17.19791,-17.38691 -1.70089,-17.95386 6.4256,-12.66221 L 182.37351,85.52232 170.27827,76.072914 165.36458,55.095237 141.74107,30.14881 123.22024,48.480654 95.627975,31.282738 Z" />
    <path
       style="fill:#e9c6af;stroke-width:0.71428573"
       d="m 261.56159,318.85574 c 3.25882,-9.52679 11.50029,-33.95536 18.31438,-54.28572 6.81409,-20.33035 12.5878,-36.96428 12.83046,-36.96428 0.24267,0 5.85439,24.02678 12.47049,53.39285 6.6161,29.36608 12.17916,53.79465 12.36236,54.28572 0.26327,0.70572 -6.18905,0.89286 -30.78487,0.89286 h -31.11795 z"
       id="path3835"
       inkscape:connector-curvature="0"
       transform="scale(0.26458333)" />
    <path
       style="fill:#ffeeaa;stroke-width:0.71428573"
       d="m 306.53729,279.50035 c -6.73952,-29.91704 -12.20381,-54.42194 -12.14286,-54.45534 0.0609,-0.0334 12.16438,8.20869 26.89653,18.31575 16.5947,11.38489 26.71694,18.76522 26.60494,19.39822 -0.2041,1.15367 -27.58035,68.45996 -28.50714,70.0867 -0.38177,0.67009 -5.02597,-18.60757 -12.85147,-53.34533 z"
       id="path3837"
       inkscape:connector-curvature="0"
       transform="scale(0.26458333)" />
    <path
       style="fill:#ffeeaa;stroke-width:0.71428573"
       d="m 465.31451,309.03863 c -1.84988,-4.82068 -25.87186,-74.2722 -25.73628,-74.40778 0.0967,-0.0967 17.61912,13.19517 38.93878,29.53741 21.31966,16.34225 38.50342,29.9586 38.18615,30.25857 -0.50324,0.47579 -49.5539,15.67976 -50.58564,15.67976 -0.21626,0 -0.57762,-0.48058 -0.80301,-1.06796 z"
       id="path3839"
       inkscape:connector-curvature="0"
       transform="scale(0.26458333)" />
    <path
       style="fill:#ffeeaa;stroke-width:0.71428573"
       d="m 452.00152,475.9672 c -26.99923,-15.58773 -49.08951,-28.52254 -49.08951,-28.74402 0,-0.49429 46.78221,-27.12203 47.61704,-27.10291 0.60953,0.014 51.1425,83.60774 50.76787,83.98237 -0.11324,0.11324 -22.29617,-12.54771 -49.2954,-28.13544 z"
       id="path3841"
       inkscape:connector-curvature="0"
       transform="scale(0.26458333)" />
    <path
       style="fill:#ffeeaa;stroke-width:0.71428573"
       d="m 478.44511,462.26161 c -14.03915,-23.32027 -25.41542,-42.51079 -25.28061,-42.6456 0.30022,-0.30022 42.60713,3.10441 42.93071,3.45483 0.12698,0.13752 3.03422,4.56199 6.46053,9.83215 l 6.22965,9.58211 -2.40728,31.0885 -2.40728,31.0885 z"
       id="path3843"
       inkscape:connector-curvature="0"
       transform="scale(0.26458333)" />
    <path
       style="fill:#ffeeaa;stroke-width:0.71428573"
       d="m 401.46505,444.87565 c -0.0101,-0.46227 -10.94571,-5.79954 -24.30132,-11.8606 -13.35561,-6.06106 -24.03483,-11.23648 -23.73161,-11.50093 0.51497,-0.44913 93.04298,-2.39214 93.42906,-1.96194 0.0974,0.1085 -10.0728,6.03977 -22.60035,13.18061 -12.52757,7.14084 -22.78567,12.60512 -22.79578,12.14286 z"
       id="path3845"
       inkscape:connector-curvature="0"
       transform="scale(0.26458333)" />
    <path
       style="fill:#ffeeaa;stroke-width:0.71428573"
       d="m 483.98344,621.79756 -32.14286,-15.88559 3.92857,-0.0458 c 4.72926,-0.0552 99.3003,2.04763 102.84643,2.28684 2.7303,0.18417 5.1066,-1.50491 -31.06071,22.07813 l -11.42857,7.45205 z"
       id="path3847"
       inkscape:connector-curvature="0"
       transform="scale(0.26458333)" />
    <path
       style="fill:#ffeeaa;stroke-width:0.71428573"
       d="m 510.05487,605.39409 c -21.80357,-0.51463 -43.43485,-1.03091 -48.0695,-1.14731 l -8.42664,-0.21162 43.42664,-11.71301 c 23.88465,-6.44216 43.93253,-11.84877 44.55083,-12.0147 0.779,-0.20904 3.97095,3.49719 10.39531,12.07016 5.09912,6.80451 9.51399,12.77362 9.81082,13.2647 0.63096,1.04383 3.67263,1.05843 -51.68746,-0.24822 z"
       id="path3849"
       inkscape:connector-curvature="0"
       transform="scale(0.26458333)" />
    <path
       style="fill:#ffeeaa;stroke-width:0.71428573"
       d="m 368.63882,651.49145 c -14.72526,-6.18448 -27.20881,-11.51929 -27.74124,-11.85513 -0.68907,-0.43466 9.77407,-8.49697 36.3074,-27.97645 20.50149,-15.05121 37.38371,-27.25755 37.51604,-27.12522 0.13233,0.13233 -4.15806,17.78176 -9.5342,39.22095 l -9.77481,38.98036 z"
       id="path3851"
       inkscape:connector-curvature="0"
       transform="scale(0.26458333)" />
    <path
       style="fill:#ffeeaa;stroke-width:0.71428573"
       d=""
       id="path3853"
       inkscape:connector-curvature="0"
       transform="scale(0.26458333)" />
    <path
       style="fill:#ffeeaa;stroke-width:0.71428573"
       d="m 352.28265,623.49945 c 4.78898,-5.59822 14.67778,-17.16964 21.97511,-25.71429 l 13.26788,-15.53571 h 13.20339 c 11.18097,0 13.04318,0.1491 12.15747,0.97342 -1.57899,1.46954 -68.5099,50.45515 -68.9388,50.45515 -0.20476,0 3.54597,-4.58036 8.33495,-10.17857 z"
       id="path3855"
       inkscape:connector-curvature="0"
       transform="scale(0.26458333)" />
    <path
       style="fill:#ffcc00;stroke-width:0.71428573"
       d="m 321.57793,595.35451 c -7.91991,-23.43508 -14.31507,-42.69077 -14.21145,-42.79042 0.33234,-0.31965 77.95514,28.5967 78.0012,29.05731 0.0861,0.86107 -47.7218,56.34233 -48.54988,56.34233 -0.47352,0 -7.12264,-18.59029 -15.23987,-42.60922 z"
       id="path3857"
       inkscape:connector-curvature="0"
       transform="scale(0.26458333)" />
    <path
       style="fill:#decd87;stroke-width:0.71428573"
       d="m 165.27037,597.58407 -30.13902,-34.54897 44.32179,-32.93756 c 24.37698,-18.11566 44.50721,-32.75213 44.73385,-32.5255 0.31125,0.31126 -28.17147,133.85135 -28.6748,134.44063 -0.0566,0.0662 -13.66537,-15.42667 -30.24182,-34.4286 z"
       id="path3863"
       inkscape:connector-curvature="0"
       transform="scale(0.26458333)" />
    <path
       style="fill:#decd87;stroke-width:0.71428573"
       d="m 345.86534,564.86137 -36.68953,-13.66354 20.97524,-2.28413 c 11.53639,-1.25627 23.25426,-2.49904 26.03973,-2.7617 l 5.06447,-0.47758 11.05207,15.60894 c 12.94111,18.27688 12.38563,17.41661 11.18256,17.31811 -0.51425,-0.0421 -17.4453,-6.22515 -37.62454,-13.7401 z"
       id="path3865"
       inkscape:connector-curvature="0"
       transform="scale(0.26458333)" />
    <path
       style="fill:#decd87;stroke-width:0.71428573"
       d="m 397.91201,659.97248 c 0,-0.30507 16.309,-65.32316 18.6341,-74.28745 l 0.68367,-2.63585 14.26969,10.78225 c 7.84833,5.93023 14.26968,10.97801 14.26968,11.21729 0,0.23928 -10.63528,12.64483 -23.63397,27.56789 -26.49867,30.42164 -24.22317,27.85185 -24.22317,27.35587 z"
       id="path3867"
       inkscape:connector-curvature="0"
       transform="scale(0.26458333)" />
    <path
       style="fill:#decd87;stroke-width:0.71428573"
       d="m 401.96731,658.46978 c 6.63337,-8.34016 44.13894,-50.44451 44.544,-50.00581 0.29007,0.31416 0.75462,6.92682 1.03233,14.6948 l 0.50493,14.12361 -23.18543,11.41211 c -12.75199,6.27665 -23.41319,11.4121 -23.69155,11.4121 -0.27837,0 0.0797,-0.73656 0.79572,-1.63681 z"
       id="path3869"
       inkscape:connector-curvature="0"
       transform="scale(0.26458333)" />
    <path
       style="fill:#decd87;stroke-width:0.71428573"
       d="m 470.96132,637.46874 c 0.69498,-0.1811 1.65926,-0.16919 2.14286,0.0265 0.48359,0.19566 -0.085,0.34383 -1.2636,0.32927 -1.17857,-0.0145 -1.57424,-0.17464 -0.87926,-0.35574 z"
       id="path3871"
       inkscape:connector-curvature="0"
       transform="scale(0.26458333)" />
    <path
       style="fill:#decd87;stroke-width:0.71428573"
       d="m 476.36347,637.28247 c -14.01241,-0.21459 -25.74182,-0.65529 -26.06535,-0.97933 -0.62416,-0.62513 -2.08648,-28.87713 -1.5238,-29.43981 0.18188,-0.18188 14.60691,6.72505 32.05562,15.34873 l 31.72493,15.67942 -5.35714,-0.10942 c -2.94643,-0.0602 -16.82185,-0.285 -30.83426,-0.49959 z"
       id="path3873"
       inkscape:connector-curvature="0"
       transform="scale(0.26458333)" />
    <path
       style="fill:#decd87;stroke-width:0.71428573"
       d="m 333.28247,628.17659 c -3.98296,-10.80455 -25.45517,-74.65212 -25.19362,-74.91315 0.33888,-0.33821 73.47713,26.73318 75.92395,28.10248 1.03716,0.58043 -11.72495,16.10398 -35.11892,42.71785 -13.53631,15.39943 -11.62782,14.89909 -15.61141,4.09282 z"
       id="path3875"
       inkscape:connector-curvature="0"
       transform="scale(0.26458333)" />
    <path
       style="fill:#decd87;stroke-width:0.71428573"
       d="m 256.04596,335.23658 c 0.19861,-0.32137 8.29005,-24.02672 17.98097,-52.67857 9.69092,-28.65185 17.86375,-52.54394 18.16184,-53.09354 0.65535,-1.20829 1.90807,3.91457 14.98299,61.27151 5.49697,24.11403 9.82188,44.12295 9.61093,44.46429 -0.21096,0.34134 -14.04427,0.62061 -30.7407,0.62061 -16.69643,0 -30.19464,-0.26294 -29.99603,-0.5843 z"
       id="path3877"
       inkscape:connector-curvature="0"
       transform="scale(0.26458333)" />
    <path
       style="fill:#decd87;stroke-width:0.71428573"
       d="m 283.21338,359.4596 -25.77007,-21.13872 15.28267,-0.19264 c 8.40547,-0.10595 21.94587,-0.10595 30.08977,0 l 14.8071,0.19264 -3.96256,20.84534 c -2.17941,11.46494 -4.12328,20.97736 -4.31971,21.13872 -0.19643,0.16136 -11.95367,-9.21904 -26.1272,-20.84534 z"
       id="path3879"
       inkscape:connector-curvature="0"
       transform="scale(0.26458333)" />
    <path
       style="fill:#decd87;stroke-width:0.71428573"
       d="m 327.81056,399.22037 -16.75486,-17.32806 3.68375,-19.28572 c 2.02606,-10.60714 3.81319,-19.92336 3.97142,-20.7027 0.15822,-0.77935 6.15224,15.58483 13.32003,36.36485 7.1678,20.78001 12.92035,37.89385 12.78344,38.03076 -0.13691,0.13691 -7.78861,-7.5487 -17.00378,-17.07913 z"
       id="path3881"
       inkscape:connector-curvature="0"
       transform="scale(0.26458333)" />
    <path
       style="fill:#decd87;stroke-width:0.71428573"
       d="m 325.5919,435.68747 c -8.1438,-13.42343 -14.72232,-24.49083 -14.61891,-24.59423 0.1034,-0.10341 8.21591,2.12337 18.0278,4.94839 l 17.83979,5.13639 5.85251,17.12368 c 3.21888,9.41803 5.73945,17.23675 5.60126,17.37493 -0.13818,0.13818 -3.73609,1.04503 -7.99536,2.01521 -4.25927,0.97019 -8.22923,1.9075 -8.82215,2.08291 -0.77615,0.22963 -5.22433,-6.5154 -15.88494,-24.08728 z"
       id="path3883"
       inkscape:connector-curvature="0"
       transform="scale(0.26458333)" />
    <path
       style="fill:#decd87;stroke-width:0.71428573"
       d="m 287.91201,471.31861 c 0,-0.40054 20.66217,-59.25514 20.87886,-59.47183 0.2905,-0.2905 29.12114,47.29566 29.12114,48.06563 0,0.3355 -11.00893,3.09031 -24.46428,6.1218 -23.9757,5.40172 -25.53572,5.72455 -25.53572,5.2844 z"
       id="path3885"
       inkscape:connector-curvature="0"
       transform="scale(0.26458333)" />
    <path
       style="fill:#decd87;stroke-width:0.71428573"
       d="m 350.62217,476.98 c -4.5987,-7.60471 -8.45584,-14.24296 -8.57143,-14.75167 -0.12493,-0.54986 0.80363,-1.14936 2.28984,-1.47838 1.375,-0.3044 5.29036,-1.17669 8.70079,-1.93844 l 6.20079,-1.385 3.97778,11.74568 c 2.18778,6.46012 3.97131,12.12564 3.96339,12.59004 -0.0111,0.65017 -7.54111,9.08389 -8.08168,9.05158 -0.065,-0.004 -3.88078,-6.2291 -8.47948,-13.83381 z"
       id="path3887"
       inkscape:connector-curvature="0"
       transform="scale(0.26458333)" />
    <path
       style="fill:#decd87;stroke-width:0.71428573"
       d="m 372.09275,512.34922 -11.89069,-19.69073 3.98952,-4.54413 3.98953,-4.54413 8.09737,23.751 c 4.45355,13.06305 8.00908,23.96874 7.90116,24.23487 -0.10791,0.26612 -5.54701,-8.37697 -12.08689,-19.20688 z"
       id="path3889"
       inkscape:connector-curvature="0"
       transform="scale(0.26458333)" />
    <path
       style="fill:#decd87;stroke-width:0.71428573"
       d="m 379.19439,510.58907 c -4.9842,-14.60465 -9.15994,-26.96076 -9.27942,-27.45803 -0.11948,-0.49726 6.21133,-7.94518 14.06847,-16.55092 7.85714,-8.60574 14.37785,-15.25117 14.49046,-14.76763 0.21266,0.91312 -9.64906,84.76222 -10.01176,85.12493 -0.11307,0.11306 -4.28355,-11.74369 -9.26775,-26.34835 z"
       id="path3891"
       inkscape:connector-curvature="0"
       transform="scale(0.26458333)" />
    <path
       style="fill:#decd87;stroke-width:0.71428573"
       d="m 433.34939,331.03755 c 0.16985,-2.27989 1.28316,-24.3857 2.47403,-49.12403 1.19087,-24.73833 2.22864,-45.04222 2.30617,-45.11975 0.13571,-0.13571 10.05379,28.1234 20.84204,59.38425 l 5.17657,15 -14.97543,11.78571 c -8.23648,6.48215 -15.23569,11.88322 -15.55381,12.00239 -0.31811,0.11916 -0.43942,-1.64869 -0.26957,-3.92857 z"
       id="path3893"
       inkscape:connector-curvature="0"
       transform="scale(0.26458333)" />
    <path
       style="fill:#decd87;stroke-width:0.71428573"
       d="m 472.3532,355.25116 c -20.11856,-10.49023 -36.55946,-19.23385 -36.53534,-19.43028 0.0593,-0.48288 27.99587,-22.33191 28.88818,-22.5933 0.69267,-0.2029 44.96009,60.363 44.47423,60.84885 -0.13633,0.13633 -16.70851,-8.33505 -36.82707,-18.82527 z"
       id="path3895"
       inkscape:connector-curvature="0"
       transform="scale(0.26458333)" />
    <path
       style="fill:#decd87;stroke-width:0.71428573"
       d="M 491.1263,345.71251 C 479.73344,329.95792 469.54443,315.883 468.48406,314.43492 l -1.92795,-2.63289 25.85652,-7.89518 c 14.22109,-4.34235 25.96214,-7.80571 26.09122,-7.69636 0.38696,0.32782 -5.87142,78.18328 -6.2832,78.16427 -0.20904,-0.01 -9.7015,-12.90766 -21.09435,-28.66225 z"
       id="path3897"
       inkscape:connector-curvature="0"
       transform="scale(0.26458333)" />
    <path
       style="fill:#d38d5f;stroke-width:0.71428573"
       d="m 527.55487,399.18715 c -5.10714,-8.25449 -10.05845,-16.29838 -11.00291,-17.8753 l -1.71719,-2.86713 21.63288,0.449 c 11.89808,0.24695 21.77691,0.59304 21.95296,0.76909 0.24835,0.24835 -16.92987,27.84424 -20.77942,33.381 -0.6655,0.9572 -2.36756,-1.3811 -10.08632,-13.85666 z"
       id="path3899"
       inkscape:connector-curvature="0"
       transform="scale(0.26458333)" />
    <path
       style="fill:#d38d5f;stroke-width:0.71428573"
       d="m 134.32816,560.96593 c -0.007,-0.27621 -3.18024,-20.10934 -7.052,-44.07362 -3.87177,-23.96429 -6.999,-43.62611 -6.94942,-43.69293 0.0895,-0.12063 102.52592,21.06379 103.39774,21.38323 0.25042,0.0918 -19.75851,15.17854 -44.46429,33.52618 -24.70578,18.34764 -44.9252,33.13335 -44.93203,32.85714 z"
       id="path3901"
       inkscape:connector-curvature="0"
       transform="scale(0.26458333)" />
    <path
       style="fill:#d38d5f;stroke-width:0.71428573"
       d="m 197.54274,630.64231 c 0.16509,-0.49108 6.78532,-30.94643 14.71161,-67.67858 7.92629,-36.73214 14.49387,-66.88239 14.59463,-67.00055 0.33487,-0.39272 76.42017,54.23458 76.42017,54.86773 0,0.58479 -104.90437,80.70425 -105.67006,80.70425 -0.19609,0 -0.22145,-0.40178 -0.0563,-0.89285 z"
       id="path3903"
       inkscape:connector-curvature="0"
       transform="scale(0.26458333)" />
    <path
       style="fill:#d38d5f;stroke-width:0.71428573"
       d="m 277.19773,635.77923 c -29.66072,-1.88614 -55.7337,-3.5323 -57.93996,-3.65814 l -4.01138,-0.22878 44.19217,-39.13041 c 24.30569,-21.52173 44.59295,-39.28291 45.08281,-39.4693 0.61728,-0.23487 5.3326,12.76167 15.36323,42.3447 7.95993,23.47597 14.46885,42.92465 14.46428,43.21929 -0.004,0.29464 -0.73151,0.49438 -1.61544,0.44385 -0.88393,-0.0505 -25.875,-1.63507 -55.53571,-3.52121 z"
       id="path3905"
       inkscape:connector-curvature="0"
       transform="scale(0.26458333)" />
    <path
       style="fill:#d38d5f;stroke-width:0.71428573"
       d="m 417.36795,708.49171 c -17.25019,-37.57156 -19.91313,-43.81677 -18.87678,-44.27044 1.91135,-0.83671 49.57327,-14.20035 49.80819,-13.96543 0.29969,0.29969 -10.17473,101.3048 -10.54377,101.67384 -0.16736,0.16736 -9.3418,-19.37972 -20.38764,-43.43797 z"
       id="path3907"
       inkscape:connector-curvature="0"
       transform="scale(0.26458333)" />
    <path
       style="fill:#d38d5f;stroke-width:0.71428573"
       d="m 439.6308,751.71373 c 0.22868,-1.47321 2.67468,-24.69642 5.43554,-51.60714 2.76087,-26.91071 5.09309,-49.12271 5.18272,-49.35998 0.0896,-0.23728 18.16295,10.94387 40.16295,24.84699 22,13.90312 41.74967,26.36035 43.88816,27.68272 l 3.88816,2.40431 -48.70752,24.35584 c -26.78913,13.39571 -49.05813,24.35584 -49.48665,24.35584 -0.49807,0 -0.62915,-0.9663 -0.36336,-2.67858 z"
       id="path3909"
       inkscape:connector-curvature="0"
       transform="scale(0.26458333)" />
    <path
       style="fill:#d38d5f;stroke-width:0.71428573"
       d="m 227.91201,491.79876 c 0,-0.75503 21.41164,-79.09519 22.01396,-80.54392 0.43718,-1.05151 4.40601,5.59351 17.86859,29.91734 9.51862,17.198 17.21581,31.34054 17.10487,31.42785 -0.49648,0.39077 -55.66549,19.64942 -56.28843,19.64942 -0.38444,0 -0.69899,-0.20282 -0.69899,-0.45069 z"
       id="path3911"
       inkscape:connector-curvature="0"
       transform="scale(0.26458333)" />
    <path
       style="fill:#d38d5f;stroke-width:0.71428573"
       d="m 523.76093,440.37317 c -5.22952,-18.69352 -9.36442,-34.13202 -9.18868,-34.30777 0.17575,-0.17575 5.01695,2.02255 10.75823,4.88512 l 10.43867,5.20466 -0.057,5.01142 c -0.0314,2.75628 -0.59387,15.85268 -1.25,29.10311 l -1.19297,24.0917 z"
       id="path3913"
       inkscape:connector-curvature="0"
       transform="scale(0.26458333)" />
    <path
       style="fill:#d38d5f;stroke-width:0.71428573"
       d="m 122.42483,467.42802 c 0.53794,-1.08036 13.14036,-26.96119 28.00538,-57.51296 14.86502,-30.55177 27.26348,-55.30177 27.55212,-55 5.68599,5.9445 47.61827,55.63491 47.2428,55.98345 -0.64637,0.60003 -103.06687,58.4938 -103.48202,58.4938 -0.163,0 0.14378,-0.88393 0.68172,-1.96429 z"
       id="path3915"
       inkscape:connector-curvature="0"
       transform="scale(0.26458333)" />
    <path
       style="fill:#d38d5f;stroke-width:0.71428573"
       d="m 348.16524,355.98721 -27.96106,-18.92345 19.38963,-15.4746 19.38963,-15.47459 8.70711,34.3008 c 4.78891,18.86545 8.64606,34.34457 8.57143,34.39805 -0.0746,0.0535 -12.71816,-8.41831 -28.09674,-18.82621 z"
       id="path3917"
       inkscape:connector-curvature="0"
       transform="scale(0.26458333)" />
    <path
       style="fill:#d38d5f;stroke-width:0.71428573"
       d=""
       id="path3919"
       inkscape:connector-curvature="0"
       transform="scale(0.26458333)" />
    <path
       style="fill:#d38d5f;stroke-width:0.71428573"
       d="m 321.48344,333.18148 c 0,-0.9262 26.41747,-65.48619 27.06125,-66.13328 0.30554,-0.30712 2.55347,7.40717 4.99538,17.14286 2.44192,9.73568 4.58764,18.2029 4.76826,18.81603 0.30461,1.03401 -2.96474,3.78072 -33.39104,28.05312 -1.88862,1.50663 -3.43385,2.4612 -3.43385,2.12127 z"
       id="path3921"
       inkscape:connector-curvature="0"
       transform="scale(0.26458333)" />
    <path
       style="fill:#d38d5f;stroke-width:0.71428573"
       d="m 535.59947,377.25448 c -11.28976,-0.2549 -20.74037,-0.677 -21.00138,-0.938 -0.37148,-0.37148 5.12997,-75.73645 5.67837,-77.78857 0.0745,-0.27898 7.9904,15.63173 17.59077,35.35715 9.60037,19.72541 18.36392,37.7126 19.47457,39.97153 l 2.01935,4.10714 -1.61743,-0.1229 c -0.88958,-0.0676 -10.8545,-0.33146 -22.14425,-0.58635 z"
       id="path3923"
       inkscape:connector-curvature="0"
       transform="scale(0.26458333)" />
    <path
       style="fill:#501616;stroke-width:0.50507629"
       d="m 426.68715,649.59673 c 11.62824,-5.83436 21.25252,-10.49767 21.38728,-10.3629 0.13477,0.13476 0.28034,2.22372 0.32349,4.64211 l 0.0785,4.39709 -20.96067,5.97142 c -11.52836,3.28428 -21.18795,5.9689 -21.46574,5.96582 -0.27779,-0.003 9.00894,-4.77917 20.63718,-10.61354 z"
       id="path3925"
       inkscape:connector-curvature="0"
       transform="scale(0.26458333)" />
    <path
       style="fill:#501616;stroke-width:0.50507629"
       d="m 475.6091,653.96422 c -13.68957,-3.12852 -24.9696,-5.77612 -25.06672,-5.88355 -0.0971,-0.10742 -0.34072,-2.21661 -0.54132,-4.68708 -0.34253,-4.21848 -0.30782,-4.47641 0.57052,-4.23951 1.17571,0.3171 51.36704,20.14847 51.65333,20.40903 0.59337,0.54004 -3.76866,-0.37756 -26.61581,-5.59889 z"
       id="path3927"
       inkscape:connector-curvature="0"
       transform="scale(0.26458333)" />
    <path
       style="fill:#501616;stroke-width:0.50507629"
       d="m 281.55429,419.3927 c -3.86838,-6.84738 -5.90927,-9.99072 -6.37156,-9.81332 -0.8072,0.30975 -1.08888,-0.27512 5.29739,10.99918 2.51066,4.43232 4.47584,8.14776 4.36706,8.25653 -0.10878,0.10878 -7.28295,-4.41895 -15.9426,-10.06162 -8.65965,-5.64267 -15.47924,-10.34792 -15.15464,-10.45612 0.3246,-0.1082 6.99621,0.0507 14.8258,0.35304 7.82959,0.30237 19.41444,0.70196 25.74411,0.88799 6.32967,0.18603 11.62671,0.52953 11.77121,0.76333 0.24682,0.39936 -16.5381,19.18059 -16.86625,18.87223 -0.14512,-0.13637 1.63481,-13.8419 2.24745,-17.30548 0.2287,-1.29291 0.11753,-1.6415 -0.52347,-1.6415 -0.4476,0 -0.81382,0.12305 -0.81382,0.27343 0,0.75024 -2.61251,18.66988 -2.74056,18.79792 -0.0818,0.0818 -2.70984,-4.38473 -5.84012,-9.92561 z"
       id="path3929"
       inkscape:connector-curvature="0"
       transform="scale(0.26458333)" />
    <path
       style="fill:#501616;stroke-width:0.50507629"
       d="m 280.42831,407.6929 c -13.53352,-0.49567 -24.99137,-0.97609 -25.46189,-1.06761 -0.47053,-0.0915 11.47548,-5.24055 26.54667,-11.44229 15.0712,-6.20173 27.49677,-11.18129 27.61238,-11.06568 0.2168,0.2168 -0.58685,15.8572 -1.10256,21.45769 -0.27941,3.0343 -0.34298,3.15406 -1.63943,3.08792 -0.74182,-0.0378 -12.42165,-0.47436 -25.95517,-0.97003 z"
       id="path3931"
       inkscape:connector-curvature="0"
       transform="scale(0.26458333)" />
    <path
       style="fill:#501616;stroke-width:0.50507629"
       d="m 257.11666,394.95857 5.43049,-10.87496 8.61688,-0.33536 c 4.73928,-0.18445 14.39088,-0.26391 21.448,-0.17658 l 12.83112,0.15879 -26.21564,10.7945 c -14.41861,5.93698 -26.51393,10.91017 -26.8785,11.05154 -0.36456,0.14136 1.78088,-4.6367 4.76765,-10.61793 z"
       id="path3933"
       inkscape:connector-curvature="0"
       transform="scale(0.26458333)" />
    <path
       style="fill:#501616;stroke-width:0.50507629"
       d="m 229.29853,410.28218 c 1.34891,-1.3209 29.77164,-23.69222 29.91667,-23.54719 0.13094,0.13093 -9.25826,19.33343 -9.70067,19.83951 -0.11937,0.13655 -19.77812,4.17754 -20.32306,4.17754 -0.20502,0 -0.15684,-0.21144 0.10706,-0.46986 z"
       id="path3935"
       inkscape:connector-curvature="0"
       transform="scale(0.26458333)" />
    <path
       style="fill:#501616;stroke-width:0.50507629"
       d="m 326.91619,413.8678 c -9.35516,-2.69161 -17.13062,-5.01507 -17.27879,-5.16324 -0.28408,-0.28408 0.96095,-23.64711 1.27539,-23.93268 0.10056,-0.0913 7.76368,7.53512 17.02914,16.94766 9.26547,9.41255 16.65221,17.09761 16.41498,17.07792 -0.23723,-0.0197 -8.08555,-2.23804 -17.44072,-4.92966 z"
       id="path3937"
       inkscape:connector-curvature="0"
       transform="scale(0.26458333)" />
    <path
       style="fill:#501616;stroke-width:0.50507629"
       d="m 475.37169,419.66321 c -10.76444,-0.85703 -19.57171,-1.6829 -19.57171,-1.83526 0,-0.15237 8.12542,-3.14391 18.05648,-6.64786 l 18.05648,-6.37083 0.85342,3.85527 c 0.46938,2.1204 1.29701,5.84402 1.83919,8.27469 0.54217,2.43068 0.83998,4.38855 0.6618,4.35082 -0.17817,-0.0377 -9.13122,-0.76981 -19.89566,-1.62683 z"
       id="path3939"
       inkscape:connector-curvature="0"
       transform="scale(0.26458333)" />
    <path
       style="fill:#501616;stroke-width:0.50507629"
       d="m 495.28296,413.17417 c -0.88365,-3.97119 -1.60565,-7.50446 -1.60445,-7.8517 0.002,-0.48034 2.06477,-0.63134 8.62564,-0.63134 h 8.62344 l -6.18387,6.94479 c -3.40114,3.81964 -6.55968,7.35291 -7.019,7.8517 -0.78465,0.85211 -0.9322,0.47061 -2.44176,-6.31345 z"
       id="path3941"
       inkscape:connector-curvature="0"
       transform="scale(0.26458333)" />
    <path
       style="fill:#501616;stroke-width:0.50507629"
       d="m 461.90276,398.63021 c 5.05754,-10.00051 9.36432,-18.18275 9.57061,-18.18275 0.20629,0 4.41561,4.8298 9.35404,10.73287 4.93844,5.90308 9.28006,11.08902 9.64805,11.5243 0.59403,0.70266 -1.44373,1.53818 -18.16955,7.44987 -10.36124,3.66215 -19.00963,6.65846 -19.21865,6.65846 -0.20902,0 3.75796,-8.18224 8.8155,-18.18275 z"
       id="path3943"
       inkscape:connector-curvature="0"
       transform="scale(0.26458333)" />
    <path
       style="fill:#501616;stroke-width:0.50507629"
       d=""
       id="path3945"
       inkscape:connector-curvature="0"
       transform="scale(0.26458333)" />
    <path
       style="fill:#501616;stroke-width:0.50507629"
       d="m 482.78503,391.14225 c -8.4123,-10.00116 -9.50036,-11.49055 -8.5863,-11.75342 0.57568,-0.16556 9.21435,-0.46704 19.19706,-0.66996 15.04611,-0.30584 18.0597,-0.25435 17.62029,0.30102 -0.29154,0.36848 -4.45906,5.67021 -9.26116,11.78164 -4.8021,6.11142 -8.8674,11.265 -9.034,11.4524 -0.1666,0.18739 -4.63775,-4.81286 -9.93589,-11.11168 z"
       id="path3947"
       inkscape:connector-curvature="0"
       transform="scale(0.26458333)" />
    <path
       style="fill:#501616;stroke-width:0.50507629"
       d="m 494.75552,402.17923 c 0.38112,-0.54817 4.44314,-5.74749 9.02671,-11.55405 9.75451,-12.35721 8.89141,-12.65036 8.32601,2.828 l -0.35515,9.72272 h -8.84526 c -8.70277,0 -8.8341,-0.0161 -8.15231,-0.99667 z"
       id="path3949"
       inkscape:connector-curvature="0"
       transform="scale(0.26458333)" />
    <path
       style="fill:#e9ddaf;stroke-width:0.50507629"
       d="m 523.60647,408.58246 -10.22779,-5.14247 0.0685,-5.56162 c 0.0377,-3.05889 0.20813,-8.21691 0.37881,-11.46228 l 0.31032,-5.90066 9.09138,14.70437 c 11.74328,18.99357 11.49011,18.56755 11.01403,18.53391 -0.22409,-0.0158 -5.00994,-2.34289 -10.63523,-5.17125 z"
       id="path3951"
       inkscape:connector-curvature="0"
       transform="scale(0.26458333)" />
    <path
       style="fill:#e9ddaf;stroke-width:0.50507629"
       d="m 496.75809,418.19909 c -0.72088,-1.89607 -2.78932,-12.44916 -2.49731,-12.74118 0.1498,-0.14979 3.88271,-0.42133 8.29535,-0.60341 l 8.02298,-0.33105 -1.34618,1.59984 c -2.7624,3.28292 -11.67058,13.21505 -11.85265,13.21505 -0.10398,0 -0.38396,-0.51266 -0.62219,-1.13925 z"
       id="path3953"
       inkscape:connector-curvature="0"
       transform="scale(0.26458333)" />
    <path
       style="fill:#e9ddaf;stroke-width:0.50507629"
       d="m 473.98273,419.31067 c -8.75045,-0.78308 -16.25083,-1.45415 -16.66752,-1.49126 -0.95022,-0.0846 -0.54848,-0.2372 18.43277,-7.00005 8.61017,-3.06772 15.79152,-5.41745 15.95855,-5.22161 0.16704,0.19584 0.92552,3.31076 1.68551,6.92206 0.75999,3.61129 1.49209,6.96374 1.62688,7.44987 0.3256,1.17428 -1.02226,1.13205 -21.03619,-0.65901 z"
       id="path3955"
       inkscape:connector-curvature="0"
       transform="scale(0.26458333)" />
    <path
       style="fill:#e9ddaf;stroke-width:0.50507629"
       d="m 280.28598,425.80208 c -1.38896,-0.88308 -7.73085,-5.02835 -14.09308,-9.21171 l -11.5677,-7.6061 6.01186,-0.15938 c 7.17954,-0.19034 14.46599,0.31361 14.05887,0.97235 -0.15958,0.25821 1.64564,3.93112 4.01161,8.16201 5.95731,10.65305 5.95126,10.623 1.57844,7.84283 z"
       id="path3957"
       inkscape:connector-curvature="0"
       transform="scale(0.26458333)" />
    <path
       style="fill:#e9ddaf;stroke-width:0.50507629"
       d="m 269.00108,440.05662 c -8.95856,-16.18453 -16.20046,-29.51424 -16.09312,-29.62158 0.20419,-0.20419 32.45109,20.67786 33.58485,21.74847 0.52847,0.49902 0.54275,3.83983 0.0759,17.74963 -0.31631,9.4242 -0.73356,17.67828 -0.92722,18.3424 -0.29237,1.00261 -3.11576,-3.78531 -16.6404,-28.21892 z"
       id="path3959"
       inkscape:connector-curvature="0"
       transform="scale(0.26458333)" />
    <path
       style="fill:#e9ddaf;stroke-width:0.50507629"
       d="m 505.54464,503.84406 c 0.12903,-0.78137 1.16718,-13.92131 2.307,-29.19987 1.13981,-15.27856 2.22465,-28.17956 2.41075,-28.6689 0.25011,-0.65765 3.17074,3.47366 11.19751,15.83917 5.97253,9.20089 10.92244,16.99194 10.99981,17.31345 0.11969,0.49738 -22.60497,22.55031 -25.98947,25.22122 -1.15705,0.91311 -1.15958,0.91173 -0.9256,-0.50507 z"
       id="path3961"
       inkscape:connector-curvature="0"
       transform="scale(0.26458333)" />
    <path
       style="fill:#e9ddaf;stroke-width:0.50507629"
       d="m 453.83888,599.27176 c 2.10296,-2.15289 13.38896,-13.9492 25.07998,-26.21402 l 21.25641,-22.29967 20.45463,13.9605 c 11.25004,7.67827 20.41431,13.9991 20.36503,14.04629 -0.1469,0.14067 -90.25944,24.42124 -90.63461,24.42124 -0.18976,0 1.37559,-1.76145 3.47856,-3.91434 z"
       id="path3963"
       inkscape:connector-curvature="0"
       transform="scale(0.26458333)" />
    <path
       style="fill:#483e37;stroke-width:0.50507629"
       d="m 433.07155,593.01828 c -7.63928,-5.81562 -14.22131,-10.77246 -14.62675,-11.01518 -0.57742,-0.34569 0.35282,-1.61788 4.29315,-5.87126 2.76667,-2.98647 5.82579,-6.32008 6.79807,-7.40802 l 1.76776,-1.97807 10.35407,2.33299 c 5.69473,1.28314 10.92227,2.34281 11.61675,2.35481 0.69448,0.012 10.45806,-4.20298 21.69685,-9.36663 11.23878,-5.16364 20.61893,-9.38845 20.84476,-9.38845 0.22584,0 -10.54651,11.47786 -23.93855,25.50635 -13.39204,14.0285 -24.47681,25.48407 -24.63283,25.45684 -0.15603,-0.0272 -6.534,-4.80776 -14.17328,-10.62338 z"
       id="path3965"
       inkscape:connector-curvature="0"
       transform="scale(0.26458333)" />
    <path
       style="fill:#483e37;stroke-width:0.50507629"
       d="m 400.82104,568.6802 c -8.43175,-6.42069 -15.12641,-11.742 -14.87701,-11.82513 0.43123,-0.14374 43.05754,9.26273 43.36409,9.56928 0.2083,0.2083 -12.25353,13.74308 -12.74771,13.84527 -0.2249,0.0465 -7.30762,-5.16873 -15.73937,-11.58942 z"
       id="path3967"
       inkscape:connector-curvature="0"
       transform="scale(0.26458333)" />
    <path
       style="fill:#483e37;stroke-width:0.50507629"
       d="m 409.23058,560.31824 c -11.86247,-2.65399 -21.52072,-4.87284 -21.46277,-4.93079 0.0579,-0.0579 6.46797,-0.37379 14.24452,-0.70189 l 14.13917,-0.59654 8.71256,3.69036 c 4.79191,2.0297 8.70333,3.81471 8.69204,3.96668 -0.0113,0.15198 -0.63632,0.97862 -1.38896,1.83697 l -1.36843,1.56065 z"
       id="path3969"
       inkscape:connector-curvature="0"
       transform="scale(0.26458333)" />
    <path
       style="fill:#6c5d53;stroke-width:0.50507629"
       d="m 432.73122,592.4626 c -11.19432,-8.41733 -14.1408,-10.86644 -13.81213,-11.48056 0.96694,-1.80675 12.28892,-13.65635 13.04827,-13.65635 0.45608,0 5.01358,0.92141 10.12779,2.04759 5.11421,1.12618 9.59343,1.93444 9.95384,1.79614 0.3604,-0.1383 0.72678,-0.0447 0.81417,0.20806 0.2179,0.63013 7.11993,-2.22757 24.40256,-10.10356 16.70639,-7.61338 17.07007,-7.7673 16.83722,-7.12584 -0.29867,0.82279 -46.37258,49.04473 -46.84236,49.02622 -0.16469,-0.006 -6.7029,-4.82675 -14.52936,-10.7117 z"
       id="path3971"
       inkscape:connector-curvature="0"
       transform="scale(0.26458333)" />
    <path
       style="fill:#6c5d53;stroke-width:0.50507629"
       d="m 445.55415,601.81518 c -0.70754,-0.70754 -0.8717,-0.73062 -0.89786,-0.12627 -0.0176,0.40677 -0.24636,0.20443 -0.50833,-0.44964 -0.28672,-0.71585 -0.75677,-1.08158 -1.18091,-0.91883 -0.42576,0.16338 -0.8123,-0.1415 -0.97677,-0.77042 -0.1802,-0.68911 -0.53836,-0.93866 -1.05992,-0.73852 -0.47075,0.18064 -0.78774,0.0314 -0.78774,-0.37079 0,-0.37018 -0.96596,-1.32901 -2.14658,-2.13072 -2.27871,-1.54738 -2.53713,-1.73657 -4.24604,-3.10851 -0.59912,-0.48099 -1.58627,-1.21545 -2.19368,-1.63213 -0.6074,-0.41669 -1.51654,-1.09854 -2.0203,-1.51523 -0.50377,-0.41669 -1.42708,-1.09854 -2.05182,-1.51523 -0.62473,-0.41669 -1.49194,-1.15536 -1.92712,-1.6415 -0.43519,-0.48614 -1.02699,-0.88388 -1.31512,-0.88388 -0.28813,0 -0.82157,-0.4767 -1.18544,-1.05934 -0.36386,-0.58263 -0.77902,-0.94187 -0.92259,-0.79831 -0.14356,0.14356 -0.90156,-0.45586 -1.68444,-1.33205 -1.28892,-1.44255 -1.36126,-1.71312 -0.76559,-2.86349 0.3618,-0.69873 3.22434,-3.82417 6.36121,-6.94541 5.1765,-5.15072 5.84617,-5.65435 7.2488,-5.45145 1.77858,0.25728 4.18871,0.75698 7.85886,1.62938 0.69448,0.16508 2.00122,0.3239 2.90387,0.35292 0.90265,0.029 1.64132,0.19742 1.6415,0.37423 2.9e-4,0.29169 2.33077,0.75919 6.28454,1.26069 1.45465,0.18451 9.87822,-2.63763 9.87822,-3.30949 0,-0.18179 0.43579,-0.36337 0.96843,-0.40349 0.53264,-0.0401 2.29409,-0.66883 3.91434,-1.39713 1.62025,-0.72829 3.85505,-1.73206 4.96622,-2.23059 9.43015,-4.23089 12.38258,-5.68604 13.20463,-6.50809 0.41347,-0.41347 0.68496,-0.4664 0.68496,-0.13354 0,0.30971 0.94091,0.0616 2.14658,-0.56605 1.18061,-0.61461 2.44254,-1.16907 2.80427,-1.23214 0.36173,-0.0631 1.21404,-0.47919 1.89403,-0.92474 0.67999,-0.44554 1.23634,-0.65779 1.23634,-0.47165 0,0.57535 -3.59514,4.84758 -6.54031,7.77208 -1.54198,1.53116 -5.53101,5.71919 -8.86451,9.30675 -3.33351,3.58755 -7.99284,8.49472 -10.35407,10.90481 -13.60468,13.88622 -20.50368,20.69361 -20.97207,20.69361 -0.29136,0 -0.91938,-0.38963 -1.39559,-0.86584 z"
       id="path3973"
       inkscape:connector-curvature="0"
       transform="scale(0.26458333)" />
    <path
       style="fill:#6c5d53;stroke-width:0.50507629"
       d="m 444.43577,564.52451 c -4.16688,-1.76871 -7.5004,-3.39618 -7.40783,-3.6166 0.53035,-1.26274 7.37618,-8.22944 8.08667,-8.22944 0.6115,0 1.74225,2.06483 4.0365,7.37094 1.75287,4.05402 3.11363,7.44294 3.02392,7.53094 -0.0897,0.088 -3.57238,-1.28713 -7.73926,-3.05584 z"
       id="path3975"
       inkscape:connector-curvature="0"
       transform="scale(0.26458333)" />
    <path
       style="fill:#6c5d53;stroke-width:0.50507629"
       d="m 451.07796,560.70754 c -1.85271,-4.22563 -3.30158,-7.74997 -3.2197,-7.83185 0.11838,-0.11837 19.59326,-1.07898 19.89109,-0.98114 0.11106,0.0365 -11.87257,15.02469 -12.6625,15.83728 -0.5205,0.53544 -1.27059,-0.77885 -4.00889,-7.02429 z"
       id="path3977"
       inkscape:connector-curvature="0"
       transform="scale(0.26458333)" />
    <path
       style="fill:#6c5d53;stroke-width:0.50507629"
       d="m 458.14302,566.69434 c 0.21029,-0.34724 2.97519,-3.87015 6.14422,-7.82868 l 5.76187,-7.19734 2.59816,-0.003 c 1.42898,-10e-4 4.87099,-0.13357 7.64891,-0.29363 l 5.05076,-0.29101 -13.55607,8.12231 c -7.45584,4.46727 -13.66275,8.12231 -13.79314,8.12231 -0.13038,0 -0.065,-0.28411 0.14529,-0.63135 z"
       id="path3979"
       inkscape:connector-curvature="0"
       transform="scale(0.26458333)" />
    <path
       style="fill:#6c5d53;stroke-width:0.50507629"
       d="m 445.92971,602.14151 c -0.18338,-0.29672 -0.61086,-0.43305 -0.94993,-0.30293 -0.33908,0.13012 -0.90005,-0.21745 -1.2466,-0.77236 -0.34655,-0.55492 -0.75621,-0.88283 -0.91034,-0.7287 -0.15413,0.15413 -0.69903,-0.22148 -1.21089,-0.8347 -0.51186,-0.61322 -0.93821,-0.96721 -0.94745,-0.78664 -0.009,0.18056 -0.77029,-0.38765 -1.69122,-1.2627 -0.92093,-0.87504 -4.8984,-3.97682 -8.83883,-6.89284 -3.94044,-2.91602 -7.16443,-5.47297 -7.16443,-5.68211 0,-0.20914 -0.23048,-0.38025 -0.51219,-0.38025 -0.28171,0 -1.1691,-0.7352 -1.97197,-1.63378 -1.33026,-1.48881 -1.40078,-1.74786 -0.79485,-2.9196 0.36571,-0.7072 3.23851,-3.84856 6.384,-6.98079 6.51363,-6.48616 5.20945,-6.10095 14.00921,-4.13783 2.6069,0.58157 4.85883,0.9384 5.00429,0.79294 0.14546,-0.14546 0.53039,-0.0438 0.85542,0.22598 0.32502,0.26975 2.11636,0.70647 3.98075,0.9705 3.13533,0.44402 3.69926,0.36831 7.51231,-1.00861 2.26738,-0.81876 4.30049,-1.76885 4.51802,-2.1113 0.21752,-0.34246 0.39898,-0.46026 0.40323,-0.26178 0.0147,0.6854 17.18033,-7.09088 17.18033,-7.78293 0,-0.25643 0.21245,-0.33493 0.47212,-0.17444 0.56824,0.35119 5.08372,-1.76539 5.08372,-2.38293 0,-0.23883 0.20274,-0.30894 0.45055,-0.15579 0.24781,0.15316 2.17972,-0.50954 4.29315,-1.47266 2.11342,-0.96312 3.84259,-1.5705 3.84259,-1.34972 0,1.69101 -45.1856,48.56504 -46.81601,48.56536 -0.33085,7e-5 -0.75159,-0.24265 -0.93498,-0.53939 z"
       id="path3981"
       inkscape:connector-curvature="0"
       transform="scale(0.26458333)" />
    <path
       style="fill:#6c5d53;stroke-width:0.08928572"
       d="m 463.24443,565.8799 c 0.0491,-0.049 5.77455,-3.4647 12.72322,-7.5905 l 12.63392,-7.50147 4.28547,-0.18132 c 2.357,-0.0997 4.2922,-0.17452 4.30043,-0.1662 0.0167,0.0169 -33.75556,15.44211 -33.92509,15.49505 -0.0714,0.0223 -0.0774,0.004 -0.0179,-0.0556 z"
       id="path3983"
       inkscape:connector-curvature="0"
       transform="scale(0.26458333)" />
    <path
       style="fill:#6c5d53;stroke-width:0.08928572"
       d="m 442.7163,567.99478 -10.61639,-2.37538 1.59905,-1.74827 c 0.87947,-0.96155 1.63027,-1.75177 1.66845,-1.75604 0.0545,-0.006 18.28059,7.73727 18.33818,7.791 0.008,0.008 -0.0725,0.11506 -0.17909,0.2389 l -0.19381,0.22516 z"
       id="path3985"
       inkscape:connector-curvature="0"
       transform="scale(0.26458333)" />
    <path
       style="fill:#554400;stroke-width:0.08928572"
       d="m 426.93426,557.30522 c -4.45273,-1.90054 -8.07557,-3.47591 -8.05075,-3.50082 0.0466,-0.0467 23.44552,-1.06603 23.49676,-1.02358 0.0344,0.0285 -7.2413,7.97314 -7.30548,7.97715 -0.0246,0.002 -3.68779,-1.5522 -8.14053,-3.45275 z"
       id="path3987"
       inkscape:connector-curvature="0"
       transform="scale(0.26458333)" />
    <path
       style="fill:#554400;stroke-width:0.08928572"
       d="m 446.25808,602.47649 c -0.94414,-0.66577 -1.02094,-0.70254 -1.38236,-0.6618 -0.36987,0.0417 -0.39759,0.0267 -0.82841,-0.44785 -0.24516,-0.27004 -0.5516,-0.61568 -0.68099,-0.7681 -0.1861,-0.21923 -0.30547,-0.27712 -0.57133,-0.27712 -0.3023,0 -0.40778,-0.0728 -1.04947,-0.72401 -0.71483,-0.72547 -0.79211,-0.77433 -1.24492,-0.78702 -0.17414,-0.005 -0.25932,-0.0643 -0.29799,-0.20772 -0.0298,-0.11049 -0.35613,-0.44197 -0.72524,-0.73661 -0.3691,-0.29464 -0.79751,-0.65724 -0.95202,-0.80577 -0.68711,-0.66053 -3.72487,-3.01663 -8.62913,-6.6928 -1.6942,-1.26995 -3.64692,-2.75951 -4.33938,-3.31013 -0.69246,-0.55063 -1.35541,-1.05125 -1.47322,-1.1125 -0.1178,-0.0612 -0.47535,-0.35991 -0.79455,-0.66371 -0.31919,-0.30379 -0.84151,-0.72726 -1.16071,-0.94105 -0.77171,-0.51688 -3.21429,-2.93834 -3.21429,-3.1865 0,-0.2203 1.08794,-1.71007 2.03764,-2.79025 2.62719,-2.98812 9.3513,-9.8216 10.60641,-10.77892 l 0.30682,-0.23402 1.31474,0.152 c 0.72312,0.0836 1.7481,0.23124 2.27775,0.32809 0.52965,0.0969 0.99832,0.15427 1.04148,0.12759 0.0432,-0.0267 0.092,-0.008 0.10846,0.0414 0.0165,0.0495 0.19068,0.0999 0.38709,0.11216 0.19641,0.0122 0.3772,0.0472 0.40176,0.0777 0.0772,0.0959 1.7763,0.45201 1.87256,0.39251 0.0505,-0.0312 0.0917,-0.0199 0.0917,0.0249 0,0.10349 1.39162,0.40871 1.5152,0.33233 0.0506,-0.0312 0.0919,-0.0216 0.0919,0.0213 0,0.0707 0.69418,0.23782 1.38392,0.33316 0.14733,0.0204 0.34822,0.0543 0.44643,0.0753 0.62488,0.13406 1.53763,0.24337 2.21856,0.26568 0.62738,0.0206 0.80718,0.0566 0.87353,0.17518 0.10237,0.18292 0.60721,0.33672 2.24958,0.68537 2.01391,0.42752 3.37037,0.59663 4.55365,0.5677 1.26147,-0.0308 3.76512,-0.78386 6.62254,-1.99187 1.89092,-0.79941 2.46903,-1.10349 2.70517,-1.42288 0.15123,-0.20455 0.2398,-0.24472 0.47838,-0.21694 0.37158,0.0433 1.02977,-0.17497 2.66466,-0.88351 0.12277,-0.0532 0.25335,-0.0897 0.29018,-0.0812 0.0368,0.009 0.067,-0.0179 0.067,-0.0588 0,-0.0409 0.0559,-0.0744 0.12415,-0.0744 0.19852,0 0.67942,-0.22205 0.67942,-0.31372 0,-0.0461 0.0365,-0.0612 0.081,-0.0337 0.18788,0.11612 9.22087,-3.97804 9.40047,-4.26072 0.0382,-0.06 0.07,-0.081 0.0707,-0.0465 0.002,0.0824 2.59222,-1.20781 3.18534,-1.58646 0.25342,-0.16178 0.48747,-0.37828 0.52011,-0.48112 0.0526,-0.16585 0.10652,-0.18084 0.47674,-0.13268 0.24324,0.0317 0.52916,0.0105 0.68525,-0.0507 0.14732,-0.0577 0.35595,-0.12173 0.46361,-0.14222 0.8018,-0.15255 4.01089,-1.88552 3.82879,-2.06762 -0.11691,-0.1169 0.23658,-0.2992 0.47754,-0.24628 0.36996,0.0813 1.93104,-0.46168 4.56763,-1.5886 1.19916,-0.51254 2.28073,-0.96223 2.4035,-0.99931 0.12277,-0.0371 0.36384,-0.13703 0.53572,-0.22211 0.42137,-0.20856 1.07143,-0.29116 1.07143,-0.13613 0,0.0636 -0.15067,0.29481 -0.33483,0.5137 -0.62783,0.7463 -4.42385,4.9293 -6.1385,6.76431 -0.94067,1.0067 -2.58857,2.77455 -3.662,3.92857 -5.60999,6.03115 -13.32981,14.09322 -21.16013,22.09822 -2.1616,2.20982 -5.84457,5.9866 -8.18439,8.39285 -2.33982,2.40625 -4.9519,5.06868 -5.80463,5.91651 l -1.55041,1.54152 z"
       id="path3989"
       inkscape:connector-curvature="0"
       transform="scale(0.26458333)" />
    <path
       style="fill:#803300;stroke-width:0.50507629"
       d="m 252.94435,682.96866 c -22.42356,-29.06696 -37.61665,-49.18441 -37.21699,-49.27971 0.37144,-0.0886 6.64683,0.20335 13.9453,0.64873 47.03691,2.87036 102.79701,6.34853 103.50117,6.45614 0.6544,0.1 -3.71366,9.88842 -20.39812,45.71038 -11.67696,25.07072 -21.39017,45.58313 -21.58493,45.58313 -0.19474,0 -17.40564,-22.1034 -38.24643,-49.11867 z"
       id="path3991"
       inkscape:connector-curvature="0"
       transform="scale(0.26458333)" />
    <path
       style="fill:#803300;stroke-width:0.50507629"
       d="m 198.79053,632.9149 c 0.11575,-0.0976 13.62023,-10.36757 30.00995,-22.82212 16.38973,-12.45455 35.44433,-26.93922 42.34357,-32.18814 6.89925,-5.24893 12.63786,-9.44973 12.75247,-9.33511 0.11463,0.11462 -15.82008,14.39504 -35.41044,31.73428 l -35.61884,31.52588 -5.67044,0.58028 c -6.13638,0.62797 -8.73742,0.78421 -8.40627,0.50493 z"
       id="path3993"
       inkscape:connector-curvature="0"
       transform="scale(0.26458333)" />
    <path
       style="fill:#803300;stroke-width:0.50507629"
       d="m 173.74717,482.5695 c -27.7792,-5.79479 -50.9622,-10.60641 -51.51778,-10.69249 -0.62299,-0.0965 18.73511,-11.32505 50.50762,-29.29659 l 51.51778,-29.14009 0.31687,11.71496 c 0.17428,6.44323 0.46735,24.38606 0.65126,39.87296 0.27114,22.83185 0.21121,28.15037 -0.31687,28.11763 -0.35819,-0.0222 -23.37969,-4.78158 -51.15888,-10.57638 z"
       id="path3995"
       inkscape:connector-curvature="0"
       transform="scale(0.26458333)" />
    <path
       style="fill:#803300;stroke-width:0.50507629"
       d="m 293.88141,730.82327 c 0.2104,-0.55483 9.70361,-21.02874 21.09602,-45.49758 12.51117,-26.87175 21.00025,-44.52214 21.43769,-44.57298 0.39832,-0.0463 1.00833,-0.12005 1.35557,-0.16389 0.5573,-0.0704 52.39537,21.49218 55.31708,23.00968 1.06263,0.55191 -1.13539,2.12868 -29.67036,21.2842 -16.9499,11.37847 -39.05835,26.22333 -49.12989,32.98858 -10.07154,6.76525 -18.86917,12.67402 -19.55028,13.13061 -1.1882,0.79652 -1.22289,0.78928 -0.85583,-0.17862 z"
       id="path3997"
       inkscape:connector-curvature="0"
       transform="scale(0.26458333)" />
    <path
       style="fill:#803300;stroke-width:0.50507629"
       d="m 335.09684,632.71358 c -5.27476,-13.86421 -26.83976,-78.63466 -26.24682,-78.83231 0.69475,-0.23158 45.96719,16.34187 72.60976,26.58117 1.18062,0.45374 2.14658,1.09836 2.14658,1.4325 0,0.90384 -7.77718,10.74804 -16.87825,21.36414 -15.48667,18.06472 -27.6172,31.76423 -28.38831,32.06014 -1.64416,0.63092 -2.17334,0.20573 -3.24296,-2.60564 z"
       id="path3999"
       inkscape:connector-curvature="0"
       transform="scale(0.26458333)" />
    <path
       style="fill:#803300;stroke-width:0.50507629"
       d="m 512.15063,501.19795 c 3.05442,-2.90859 9.18226,-8.72264 13.61743,-12.9201 l 8.06395,-7.63174 1.78504,1.55418 c 0.98177,0.85479 7.15249,6.36817 13.71273,12.25195 l 11.92769,10.69778 -12.43277,0.32714 c -6.83802,0.17993 -19.13659,0.4806 -27.33015,0.66815 l -14.89739,0.341 z"
       id="path4001"
       inkscape:connector-curvature="0"
       transform="scale(0.26458333)" />
    <path
       style="fill:#803300;stroke-width:0.50507629"
       d="m 508.55235,439.09505 c -2.10845,-2.64577 -10.82372,-16.82857 -10.63067,-17.29985 0.29479,-0.71966 13.53926,-15.59579 13.69579,-15.38304 0.0621,0.0844 -0.47488,7.63228 -1.19335,16.77299 -0.9842,12.52142 -1.44574,16.4445 -1.87177,15.9099 z"
       id="path4003"
       inkscape:connector-curvature="0"
       transform="scale(0.26458333)" />
    <path
       style="fill:#803300;stroke-width:0.50507629"
       d="m 521.72977,459.47888 c -4.99203,-7.67532 -9.58436,-14.79517 -10.20517,-15.82189 l -1.12875,-1.86676 1.26154,-16.09705 c 0.69384,-8.85338 1.31542,-16.39559 1.38128,-16.76048 0.0659,-0.36489 4.19253,13.8966 9.17037,31.6922 4.97784,17.7956 8.94859,32.45766 8.82389,32.58237 -0.12471,0.1247 -4.31113,-6.05308 -9.30316,-13.72839 z"
       id="path4005"
       inkscape:connector-curvature="0"
       transform="scale(0.26458333)" />
    <path
       style="fill:#803300;stroke-width:0.50507629"
       d="m 535.16358,469.70021 c -0.1114,-3.71691 2.01721,-46.39501 2.50379,-50.20039 l 0.54196,-4.23844 9.89917,-15.59497 c 5.44455,-8.57724 9.97004,-15.52412 10.05665,-15.43751 0.13673,0.13673 -22.23256,85.14036 -22.7582,86.48146 -0.10888,0.27779 -0.2184,-0.17678 -0.24337,-1.01015 z"
       id="path4007"
       inkscape:connector-curvature="0"
       transform="scale(0.26458333)" />
    <path
       style="fill:#803300;stroke-width:0.50507629"
       d="m 226.86406,476.01366 c -0.17493,-6.52811 -0.45445,-23.38399 -0.62118,-37.45751 l -0.30313,-25.58821 2.69305,-0.5506 c 12.63626,-2.58346 19.8929,-3.96961 20.0365,-3.82732 0.12726,0.12611 -18.88477,70.37211 -21.11884,78.03024 -0.2026,0.69448 -0.51148,-4.07849 -0.6864,-10.6066 z"
       id="path4009"
       inkscape:connector-curvature="0"
       transform="scale(0.26458333)" />
    <path
       style="fill:#803300;stroke-width:0.50507629"
       d="m 515.12841,659.80097 c 0.14997,-0.93902 0.51558,-5.00293 0.81246,-9.03092 0.29688,-4.02798 0.66037,-8.15106 0.80776,-9.16239 l 0.26798,-1.83878 6.6572,2.76953 c 3.66147,1.52324 7.03897,2.9189 7.50556,3.10147 0.65754,0.25728 -0.6939,1.75202 -6.00833,6.6454 -3.77118,3.4724 -7.63488,6.9681 -8.58601,7.76823 l -1.72931,1.45477 z"
       id="path4011"
       inkscape:connector-curvature="0"
       transform="scale(0.26458333)" />
    <path
       style="fill:#c87137;stroke-width:0.50507629"
       d="m 525.35362,641.66846 c -3.84874,-1.62673 -7.07292,-3.0329 -7.16485,-3.12483 -0.0919,-0.0919 9.16071,-6.25674 20.56142,-13.69959 11.40071,-7.44284 20.80016,-13.46084 20.88768,-13.37333 0.28981,0.28982 -26.26633,33.17677 -26.78147,33.166 -0.2778,-0.006 -3.65405,-1.34152 -7.50278,-2.96825 z"
       id="path4013"
       inkscape:connector-curvature="0"
       transform="scale(0.26458333)" />
    <path
       style="fill:#c87137;stroke-width:0.50507629"
       d="m 364.666,744.4488 c -38.89088,-5.92458 -70.80574,-10.78868 -70.92192,-10.8091 -0.11619,-0.0204 22.68903,-15.40432 50.67826,-34.18644 29.79647,-19.99486 51.07613,-33.96266 51.33977,-33.69903 0.34645,0.34645 34.17607,73.5989 40.13928,86.91496 1.0528,2.35092 1.09037,2.64597 0.33138,2.60161 -0.47085,-0.0275 -32.6759,-4.89742 -71.56677,-10.822 z"
       id="path4015"
       inkscape:connector-curvature="0"
       transform="scale(0.26458333)" />
    <path
       style="fill:#c87137;stroke-width:0.50507629"
       d="m 495.26648,676.76314 c -22.619,-14.2962 -40.91539,-25.99348 -40.65864,-25.99396 0.25674,-4.9e-4 13.65573,2.98745 29.77552,6.63986 l 29.30871,6.64074 10.59231,17.44104 c 5.82578,9.59257 11.1166,18.30977 11.75737,19.37156 0.64078,1.06179 0.9817,1.92228 0.75762,1.91219 -0.22409,-0.0101 -18.91389,-11.71523 -41.53289,-26.01143 z"
       id="path4017"
       inkscape:connector-curvature="0"
       transform="scale(0.26458333)" />
    <path
       style="fill:#c87137;stroke-width:0.50507629"
       d="m 526.84468,682.82953 c -6.32051,-10.41961 -11.41738,-19.14184 -11.32636,-19.38272 0.19945,-0.52787 16.70418,-15.70722 17.0787,-15.70722 0.30379,0 6.19532,53.57889 5.92162,53.85259 -0.10016,0.10016 -5.35344,-8.34303 -11.67396,-18.76265 z"
       id="path4019"
       inkscape:connector-curvature="0"
       transform="scale(0.26458333)" />
    <path
       style="fill:#c87137;stroke-width:0.50507629"
       d="m 267.07066,522.36391 -38.45436,-27.40989 24.58829,-0.30661 c 13.52356,-0.16864 42.43011,-0.47765 64.23678,-0.68671 l 39.64848,-0.38009 -2.57648,2.70701 c -1.41706,1.48886 -12.64444,13.7303 -24.94973,27.20321 -12.3053,13.47291 -22.74797,24.89822 -23.20594,25.38958 -0.78757,0.84498 -2.91612,-0.59167 -39.28704,-26.5165 z"
       id="path4023"
       inkscape:connector-curvature="0"
       transform="scale(0.26458333)" />
    <path
       style="fill:#c87137;stroke-width:0.50507629"
       d="m 203.05691,381.59329 c -13.0478,-15.18942 -23.64429,-27.83056 -23.54776,-28.09141 0.15346,-0.41466 73.33527,-15.48958 73.6529,-15.17195 0.17036,0.17036 -25.70167,70.18355 -26.07716,70.56827 -0.16759,0.17173 -10.98019,-12.11548 -24.02798,-27.30491 z"
       id="path4025"
       inkscape:connector-curvature="0"
       transform="scale(0.26458333)" />
    <path
       style="fill:#c87137;stroke-width:0.50507629"
       d="m 180.38757,350.62848 c 0.21262,-0.34724 7.76766,-8.92723 16.78898,-19.06663 9.02132,-10.13941 16.44759,-18.50278 16.50282,-18.58526 0.12254,-0.18303 37.09591,22.54207 37.95597,23.32903 0.45343,0.4149 -8.62028,2.42347 -35.10281,7.77043 -19.64286,3.966 -35.89817,7.2048 -36.12291,7.19734 -0.22474,-0.007 -0.23466,-0.29767 -0.022,-0.64491 z"
       id="path4027"
       inkscape:connector-curvature="0"
       transform="scale(0.26458333)" />
    <path
       style="fill:#ffd42a;stroke-width:0.50507629"
       d="m 521.99726,563.86699 c -10.97279,-7.49346 -20.1778,-13.90467 -20.45559,-14.24714 -0.34991,-0.43137 -1.90042,-0.57728 -5.04696,-0.47495 -2.72514,0.0886 -4.34138,-0.0347 -4.04061,-0.30823 0.91292,-0.83038 68.98975,-41.12118 69.16375,-40.93409 0.0938,0.10088 -3.97064,15.18419 -9.03217,33.51846 -5.06153,18.33427 -9.35955,33.96007 -9.55116,34.72399 -0.19161,0.76393 -0.51451,1.37939 -0.71756,1.36769 -0.20306,-0.0117 -9.34692,-6.15227 -20.3197,-13.64573 z"
       id="path4029"
       inkscape:connector-curvature="0"
       transform="scale(0.26458333)" />
    <path
       style="fill:#ffd42a;stroke-width:0.50507629"
       d=""
       id="path4031"
       inkscape:connector-curvature="0"
       transform="scale(0.26458333)" />
    <path
       style="fill:#ffd42a;stroke-width:0.50507629"
       d="m 484.11654,650.7077 c -15.97304,-6.3349 -29.26917,-11.6358 -29.54697,-11.77978 -0.27779,-0.14397 13.24563,-0.12571 30.05204,0.0406 16.80642,0.1663 30.61372,0.35145 30.6829,0.41145 0.18183,0.15771 -1.76058,22.5446 -1.97031,22.70843 -0.0967,0.0755 -13.24463,-5.04579 -29.21766,-11.38068 z"
       id="path4033"
       inkscape:connector-curvature="0"
       transform="scale(0.26458333)" />
    <path
       style="fill:#ffd42a;stroke-width:0.50507629"
       d="m 553.56452,591.85785 c -5.27804,-7.05534 -9.57202,-13.10767 -9.54217,-13.44961 0.10067,-1.15304 18.07984,-65.99353 18.25134,-65.82203 0.21525,0.21524 1.25403,91.77766 1.04332,91.96259 -0.0858,0.0753 -4.47444,-5.63561 -9.75249,-12.69095 z"
       id="path4035"
       inkscape:connector-curvature="0"
       transform="scale(0.26458333)" />
    <path
       style="fill:#ffd42a;stroke-width:0.50507629"
       d="m 354.45402,438.59558 c -3.11646,-9.18429 -5.47407,-16.62532 -5.23914,-16.53563 0.23493,0.0897 11.57556,5.25857 25.2014,11.48639 24.50228,11.19899 27.10091,12.63572 24.15829,13.35667 -5.1566,1.26337 -37.28448,8.40125 -37.79479,8.3969 -0.41356,-0.004 -2.77235,-6.23234 -6.32576,-16.70433 z"
       id="path4037"
       inkscape:connector-curvature="0"
       transform="scale(0.26458333)" />
    <path
       style="fill:#ffd42a;stroke-width:0.50507629"
       d="m 287.44674,463.89183 c 0.11744,-2.36123 0.44018,-10.40616 0.71719,-17.87761 l 0.50367,-13.58447 1.86154,-2.0729 c 7.65296,-8.52188 15.48112,-16.95535 15.61454,-16.82193 0.11647,0.11647 -16.3479,47.74611 -18.62926,53.89245 -0.15467,0.41668 -0.18512,-1.17431 -0.0677,-3.53554 z"
       id="path4039"
       inkscape:connector-curvature="0"
       transform="scale(0.26458333)" />
    <path
       style="fill:#ffd42a;stroke-width:0.50507629"
       d="m 262.61251,381.31186 c -0.57541,-2.4623 -6.81124,-41.34608 -6.68205,-41.66625 0.0793,-0.19649 11.83186,9.21168 26.11685,20.90704 l 25.97271,21.26429 -2.23413,0.11482 c -1.22876,0.0632 -11.39234,0.17679 -22.58572,0.25253 -19.99339,0.1353 -20.35575,0.11994 -20.58766,-0.87243 z"
       id="path4041"
       inkscape:connector-curvature="0"
       transform="scale(0.26458333)" />
    <path
       style="fill:#ffd42a;stroke-width:0.50507629"
       d="m 452.64581,357.57328 c -10.39679,-11.11168 -18.84007,-20.27737 -18.76285,-20.3682 0.0772,-0.0908 17.25259,8.77326 38.16748,19.69798 l 38.02706,19.86311 -11.08644,0.35109 c -6.09755,0.19311 -14.76645,0.42039 -19.26422,0.50508 l -8.17777,0.15399 z"
       id="path4043"
       inkscape:connector-curvature="0"
       transform="scale(0.26458333)" />
    <path
       style="fill:#ffd42a;stroke-width:0.50507629"
       d="m 395.46121,296.39287 c -5.5479,-5.96784 -10.14412,-11.00877 -10.21384,-11.20205 -0.0697,-0.19329 11.03767,-11.48771 24.68307,-25.09871 13.6454,-13.61101 24.69949,-24.29272 24.56466,-23.73714 -0.18412,0.75866 -24.14871,59.48779 -28.27168,69.28437 l -0.67513,1.60416 z"
       id="path4045"
       inkscape:connector-curvature="0"
       transform="scale(0.26458333)" />
    <path
       style="fill:#ffdd55;stroke-width:0.50507629"
       d="m 359.86777,303.00756 c 0,-0.14877 -2.26607,-9.17126 -5.03572,-20.04997 -2.76966,-10.87871 -4.97364,-19.84156 -4.89775,-19.91745 0.3001,-0.3001 31.90429,21.63897 31.90429,22.1474 0,0.29902 -4.94343,4.49172 -10.98541,9.3171 -6.04197,4.82538 -10.98541,8.65169 -10.98541,8.50292 z"
       id="path4047"
       inkscape:connector-curvature="0"
       transform="scale(0.26458333)" />
    <path
       style="fill:#ffe680;stroke-width:0.50507629"
       d="m 424.92517,500.67344 c -12.13144,-27.86068 -21.97692,-50.73602 -21.87884,-50.8341 0.16813,-0.16813 99.04684,56.72495 99.90977,57.48634 0.22236,0.19619 -7.23715,9.87982 -16.57669,21.51918 l -16.98098,21.16248 -2.86874,0.31756 c -1.57781,0.17466 -6.62143,0.47208 -11.20804,0.66093 l -8.3393,0.34337 z"
       id="path4049"
       inkscape:connector-curvature="0"
       transform="scale(0.26458333)" />
    <path
       style="fill:#ffe680;stroke-width:0.50507629"
       d="m 471.80349,549.64575 c 0.72627,-1.19323 32.45183,-40.54189 33.13529,-41.09714 0.67442,-0.5479 53.70273,-2.11997 54.21544,-1.60726 0.13362,0.13362 -15.84289,9.79317 -35.50334,21.46567 l -35.74627,21.22273 -8.24794,0.33229 c -6.64932,0.26788 -8.17143,0.20658 -7.85318,-0.31629 z"
       id="path4051"
       inkscape:connector-curvature="0"
       transform="scale(0.26458333)" />
    <path
       style="fill:#ffe680;stroke-width:0.50507629"
       d="m 308.9424,548.3438 c 4.5029,-5.35139 49.65279,-54.15069 49.99542,-54.03648 0.42082,0.14027 28.72952,46.50409 28.52141,46.7122 -0.0984,0.0984 -78.55054,8.73528 -79.34596,8.73528 -0.19698,0 0.17612,-0.63495 0.82913,-1.411 z"
       id="path4055"
       inkscape:connector-curvature="0"
       transform="scale(0.26458333)" />
    <path
       style="fill:#ffe680;stroke-width:0.50507629"
       d="m 322.88537,482.16284 c -17.97909,-4.898 -32.52529,-9.04171 -32.32488,-9.20824 0.27393,-0.22762 41.58447,-9.67851 47.89906,-10.95818 0.92289,-0.18703 2.18386,1.62213 9.29807,13.34016 4.52672,7.45609 8.56127,14.06792 8.96567,14.69295 0.67064,1.03652 0.65247,1.13213 -0.20669,1.08759 -0.51809,-0.0269 -15.65214,-4.05629 -33.63123,-8.95428 z"
       id="path4057"
       inkscape:connector-curvature="0"
       transform="scale(0.26458333)" />
    <path
       style="fill:#ffe680;stroke-width:0.50507629"
       d="m 442.25251,375.62975 c -1.19913,-4.66641 -7.69968,-34.57358 -7.54784,-34.72542 0.1586,-0.1586 27.36416,28.73633 32.15217,34.1487 l 2.18574,2.47076 H 455.8909 442.73922 Z"
       id="path4059"
       inkscape:connector-curvature="0"
       transform="scale(0.26458333)" />
    <path
       style="fill:#decd87;stroke-width:0.50507629"
       d="m 421.41673,324.12217 c -5.39812,-5.76979 -10.90757,-11.67333 -12.24322,-13.11897 l -2.42845,-2.62843 14.56835,-35.58623 c 13.98036,-34.14995 14.57401,-35.48101 14.70865,-32.97944 0.15465,2.87339 -4.2885,94.30153 -4.59782,94.61085 -0.10601,0.10601 -4.60939,-4.52799 -10.00751,-10.29778 z"
       id="path4061"
       inkscape:connector-curvature="0"
       transform="scale(0.26458333)" />
    <path
       style="fill:#f4eed7;stroke-width:0.50507629"
       d="m 403.27392,546.96957 c -13.16509,-5.61138 -13.35288,-5.71237 -13.2674,-7.13547 0.2446,-4.07214 10.48729,-89.38426 10.77197,-89.72051 0.18334,-0.21655 10.15234,22.15581 22.15335,49.71634 19.61889,45.05516 21.74178,50.1883 21.04453,50.88554 -0.6105,0.61051 -2.7359,0.85304 -9.99088,1.14005 -5.06848,0.20052 -11.04738,0.46389 -13.28644,0.58528 l -4.07103,0.22071 z"
       id="path4067"
       inkscape:connector-curvature="0"
       transform="scale(0.26458333)" />
    <path
       style="fill:#f4eed7;stroke-width:0.50507629"
       d="m 373.21317,549.81495 c -6.37258,-3.26902 -8.18036,-4.40097 -7.46746,-4.6758 1.01819,-0.39253 19.6704,-2.46226 22.15136,-2.45801 1.26908,0.002 24.69465,9.57138 24.32814,9.9379 -0.0673,0.0673 -5.79541,0.36216 -12.72911,0.65524 -6.93371,0.29307 -13.79207,0.60509 -15.24081,0.69336 -2.45181,0.14939 -3.21583,-0.13794 -11.04212,-4.15269 z"
       id="path4069"
       inkscape:connector-curvature="0"
       transform="scale(0.26458333)" />
    <path
       style="fill:#f4eed7;stroke-width:0.50507629"
       d="m 377.2929,565.52837 c -4.44467,-6.28634 -9.17631,-12.97529 -10.51475,-14.86433 -1.33845,-1.88904 -2.24758,-3.43186 -2.02031,-3.42848 0.22728,0.003 3.92981,1.87847 8.22785,4.16687 l 7.81462,4.16074 2.39216,10.35407 c 1.31568,5.69473 2.34479,10.50859 2.2869,10.69745 -0.0579,0.18887 -3.74179,-4.79998 -8.18647,-11.08632 z"
       id="path4071"
       inkscape:connector-curvature="0"
       transform="scale(0.26458333)" />
    <path
       style="fill:#f4eed7;stroke-width:0.50507629"
       d="m 387.9148,579.93311 c -0.44906,-1.37933 -5.26923,-22.81989 -5.15577,-22.93335 0.11067,-0.11067 7.15647,5.18135 24.77566,18.60869 l 6.50321,4.956 h -12.95878 c -9.92068,0 -13.00697,-0.14801 -13.16432,-0.63134 z"
       id="path4073"
       inkscape:connector-curvature="0"
       transform="scale(0.26458333)" />
    <path
       style="fill:#f4eed7;stroke-width:0.50507629"
       d="m 232.57857,492.85047 c 0.4112,-0.18205 12.54725,-4.49969 26.96899,-9.59475 19.00618,-6.71471 26.39603,-9.11879 26.85617,-8.73691 0.41907,0.3478 0.69444,0.35427 0.81021,0.0191 0.0998,-0.2889 14.42702,3.3489 33.23619,8.43895 l 33.06081,8.94675 -22.20167,0.31066 c -42.02717,0.58807 -99.47699,0.94665 -98.7307,0.61625 z"
       id="path4075"
       inkscape:connector-curvature="0"
       transform="scale(0.26458333)" />
    <path
       style="fill:#f4eed7;stroke-width:0.50507629"
       d="m 364.73115,468.60413 c -2.11735,-6.29757 -3.78952,-11.51035 -3.71593,-11.58395 0.3039,-0.30389 36.37229,-8.3049 36.56584,-8.11135 0.27808,0.27807 -28.05508,31.14544 -28.5884,31.14544 -0.22648,0 -2.14415,-5.15256 -4.26151,-11.45014 z"
       id="path4079"
       inkscape:connector-curvature="0"
       transform="scale(0.26458333)" />
    <path
       style="fill:#f4eed7;stroke-width:0.50507629"
       d="m 229.09715,408.02587 c 0.11462,-0.30807 5.77687,-15.59722 12.58278,-33.9759 8.33054,-22.49582 12.49201,-33.12382 12.73436,-32.52238 0.35461,0.88005 6.9991,41.21499 6.80887,41.33286 -0.0538,0.0333 -7.02997,5.58569 -15.50262,12.33858 -8.47266,6.75288 -15.7259,12.5275 -16.11831,12.83246 -0.51941,0.40366 -0.65679,0.40213 -0.50508,-0.006 z"
       id="path4081"
       inkscape:connector-curvature="0"
       transform="scale(0.26458333)" />
    <path
       style="fill:#f4eed7;stroke-width:0.50507629"
       d="m 379.08092,370.70526 c -0.0976,-2.25138 5.10578,-80.9102 5.43393,-82.14443 0.33469,-1.25885 0.89663,-0.74888 10.20319,9.25973 5.41694,5.82558 9.82684,10.97076 9.79979,11.43375 -0.0358,0.6126 -17.40755,43.36304 -24.97075,61.45095 l -0.42238,1.01015 z"
       id="path4083"
       inkscape:connector-curvature="0"
       transform="scale(0.26458333)" />
    <path
       style="fill:#ffeeaa;stroke-width:0.50507629"
       d="m 408.86017,376.87916 c -16.25083,-0.25797 -29.61912,-0.53685 -29.70732,-0.61973 -0.13009,-0.12225 7.01163,-17.70508 25.8756,-63.70539 l 1.06327,-2.59283 13.12725,14.06603 13.12725,14.06603 4.39863,19.58899 c 2.41924,10.77394 4.40798,19.64581 4.41941,19.71526 0.0114,0.0695 -0.60424,0.0868 -1.36817,0.0385 -0.76392,-0.0483 -14.68509,-0.29886 -30.93592,-0.55683 z"
       id="path4085"
       inkscape:connector-curvature="0"
       transform="scale(0.26458333)" />
    <path
       style="fill:#ffeeaa;stroke-width:0.50507629"
       d="m 411.13302,550.47146 c -2.77792,-1.24051 -5.76697,-2.59109 -6.64233,-3.00129 -0.87536,-0.41021 -1.71182,-0.74583 -1.8588,-0.74583 -0.32607,0 -6.17999,-2.61685 -9.80789,-4.38438 -2.28576,-1.11363 -2.84687,-1.7637 -2.75503,-3.19176 0.0471,-0.73243 0.69625,-7.03001 0.85903,-8.33376 0.33313,-2.66809 0.73283,-5.99665 1.00073,-8.33376 0.93297,-8.13898 4.89438,-41.39222 5.0542,-42.42641 0.18076,-1.16969 0.34589,-2.54674 1.02965,-8.58629 0.25392,-2.24279 0.45586,-3.86996 0.97161,-7.82869 0.14476,-1.11116 0.3861,-3.04308 0.5363,-4.29315 0.1502,-1.25006 0.3901,-3.24315 0.5331,-4.42909 0.52722,-4.37241 0.87629,-4.51497 2.51399,-1.02672 0.8219,1.75063 1.72165,3.34995 1.99944,3.55404 0.2778,0.20409 0.32878,0.37456 0.1133,0.37881 -0.21548,0.004 -6e-4,0.74641 0.47752,1.64923 0.47811,0.90283 0.91261,1.86879 0.96555,2.14658 0.0832,0.43633 0.95148,2.3855 4.50005,10.10152 0.38327,0.83338 1.24866,2.7653 1.9231,4.29315 0.67444,1.52786 1.71162,3.85443 2.30484,5.17016 0.59321,1.31573 4.84634,11.08896 9.45138,21.71828 4.60505,10.62932 9.03738,20.75678 9.84963,22.50545 0.81226,1.74867 1.47682,3.30531 1.47682,3.4592 0,0.15388 0.3146,0.996 0.69911,1.87136 2.31783,5.27668 6.13956,14.60033 6.94909,16.95326 0.69427,2.01794 0.79178,2.85186 0.36433,3.11604 -0.7684,0.4749 -5.2462,0.88559 -13.31583,1.22129 -3.61129,0.15023 -8.27062,0.36879 -10.35406,0.48568 -3.60755,0.20241 -4.02877,0.10505 -8.83883,-2.04292 z"
       id="path4087"
       inkscape:connector-curvature="0"
       transform="scale(0.26458333)" />
    <path
       style="fill:#ffeeaa;stroke-width:0.50507629"
       d="m 362.95867,398.64637 14.1144,-21.16265 2.9426,1.66153 c 55.54329,31.36235 68.01369,38.54634 67.06615,38.63566 -0.6042,0.057 -21.44049,0.45648 -46.30287,0.88781 -24.86238,0.43134 -46.71865,0.86436 -48.5695,0.96227 l -3.36517,0.17802 z"
       id="path4089"
       inkscape:connector-curvature="0"
       transform="scale(0.26458333)" />
    <path
       style="fill:#ffeeaa;stroke-width:0.50507629"
       d="m 415.53478,397.5093 -33.98403,-19.2279 8.47768,-0.12154 c 4.66272,-0.0668 18.13726,0.0468 29.94342,0.25254 l 21.46574,0.37408 4.14826,18.43528 c 2.28154,10.13941 4.09982,18.67832 4.04061,18.97536 -0.0592,0.29704 -15.40046,-8.11248 -34.09168,-18.68782 z"
       id="path4091"
       inkscape:connector-curvature="0"
       transform="scale(0.26458333)" />
    <path
       style="fill:#ffeeaa;stroke-width:0.50507629"
       d="m 234.68787,323.98998 c -10.65154,-6.58512 -19.36766,-12.14109 -19.36916,-12.34659 -0.003,-0.47336 74.97386,-84.67537 75.19865,-84.45058 0.13872,0.13872 -36.14404,108.55245 -36.38397,108.71615 -0.0435,0.0297 -8.79399,-5.33385 -19.44552,-11.91898 z"
       id="path4093"
       inkscape:connector-curvature="0"
       transform="scale(0.26458333)" />
    <path
       style="fill:#ffeeaa;stroke-width:0.50507629"
       d="m 347.57536,418.0625 c -0.3705,-0.59949 -27.10354,-77.99597 -27.10354,-78.46916 0,-0.47791 55.00334,36.55241 55.03161,37.04935 0.0442,0.77667 -27.65648,41.85924 -27.92807,41.41981 z"
       id="path4095"
       inkscape:connector-curvature="0"
       transform="scale(0.26458333)" />
    <path
       style="fill:#ffeeaa;stroke-width:0.50507629"
       d="m 368.99576,339.05725 c -4.56343,-18.15097 -8.38665,-33.26472 -8.49604,-33.58612 -0.17907,-0.52613 21.99065,-18.6498 22.34213,-18.2646 0.12824,0.14054 -5.02178,79.64012 -5.40387,83.41799 -0.0798,0.78896 -3.87879,-13.41631 -8.44222,-31.56727 z"
       id="path4097"
       inkscape:connector-curvature="0"
       transform="scale(0.26458333)" />
    <path
       style="fill:#d38d5f;stroke-width:0.50507629"
       d="m 451.10875,415.09545 c -0.40191,-1.32085 -7.90339,-35.16534 -7.90339,-35.65778 0,-0.21926 6.02303,-0.39865 13.38452,-0.39865 7.36149,0 13.38452,0.0754 13.38452,0.16748 0,0.0921 -4.17948,8.41938 -9.28774,18.50503 -6.43652,12.70817 -9.37681,18.0448 -9.57791,17.38392 z"
       id="path4099"
       inkscape:connector-curvature="0"
       transform="scale(0.26458333)" />
    <path
       style="fill:#d38d5f;stroke-width:0.50507629"
       d="m 236.94095,492.68367 -4.04061,-0.25254 3.53553,-1.11034 c 1.94454,-0.61068 5.69474,-1.88265 8.33376,-2.82659 17.3695,-6.21282 27.71157,-9.83854 28.89334,-10.12941 0.75168,-0.18502 2.00174,-0.59679 2.77792,-0.91505 0.77618,-0.31826 1.63852,-0.63392 1.91631,-0.70148 0.27779,-0.0676 2.24096,-0.63884 4.36258,-1.26954 l 3.85751,-1.14672 5.73894,1.35392 c 3.15642,0.74466 6.19352,1.45797 6.7491,1.58513 1.01328,0.23193 4.39003,1.11231 5.80838,1.51436 0.41668,0.11812 3.71231,0.98482 7.3236,1.92601 21.34058,5.56186 39.57641,10.70926 39.02403,11.01525 -1.05154,0.58251 -106.18566,1.46292 -114.28039,0.957 z"
       id="path4101"
       inkscape:connector-curvature="0"
       transform="scale(0.26458333)" />
    <path
       style="fill:#d38d5f;stroke-width:0.50507629"
       d="m 366.36226,473.3645 c -2.55053,-6.87386 -4.92001,-14.39863 -4.92001,-15.62452 0,-0.4394 0.51139,-0.9416 1.13642,-1.11599 1.36351,-0.38043 17.66289,-4.07446 21.59201,-4.89353 1.52786,-0.31849 3.45977,-0.77906 4.29315,-1.02348 0.83338,-0.24442 2.53801,-0.58485 3.78807,-0.75652 1.25007,-0.17166 2.62602,-0.49793 3.05767,-0.72503 0.43166,-0.2271 1.04922,-0.24951 1.37237,-0.0498 0.64592,0.39921 -0.12439,1.30522 -13.77728,16.20422 -7.94788,8.67329 -13.37687,14.17183 -13.99257,14.17183 -0.13975,0 -1.28717,-2.78423 -2.54983,-6.18718 z"
       id="path4103"
       inkscape:connector-curvature="0"
       transform="scale(0.26458333)" />
    <path
       style="fill:#d38d5f;stroke-width:0.50507629"
       d="m 383.38368,573.96243 c -0.81721,-1.13236 -1.95943,-2.66653 -2.53825,-3.40927 -3.80574,-4.88347 -15.9034,-22.44371 -15.64205,-22.70506 0.35816,-0.35816 8.61523,3.62115 12.96619,6.24875 2.72123,1.64339 2.86198,1.83313 3.42828,4.62174 0.32481,1.59939 1.34739,6.14679 2.27241,10.10533 0.92502,3.95853 1.52828,7.19733 1.34057,7.19733 -0.18772,0 -1.00993,-0.92647 -1.82715,-2.05882 z"
       id="path4105"
       inkscape:connector-curvature="0"
       transform="scale(0.26458333)" />
    <path
       style="fill:#d38d5f;stroke-width:0.50507629"
       d="m 380.13007,553.09313 c -3.587,-1.49621 -9.74784,-4.61513 -12.30503,-6.22941 -1.50816,-0.95206 -1.82715,-1.365 -1.28768,-1.6669 0.67308,-0.37667 9.90572,-1.55377 17.92214,-2.28495 3.36227,-0.30667 3.89562,-0.20184 9.09137,1.78685 7.68056,2.93976 17.54648,7.09834 18.12121,7.63826 0.28604,0.26871 -0.52991,0.48036 -2.0203,0.52405 -1.37507,0.0403 -3.29562,0.10849 -4.2679,0.15151 -0.97227,0.043 -6.08616,0.25259 -11.36421,0.46571 -5.27805,0.21312 -9.93738,0.47437 -10.35407,0.58055 -0.41668,0.10618 -2.00767,-0.32838 -3.53553,-0.96567 z"
       id="path4107"
       inkscape:connector-curvature="0"
       transform="scale(0.26458333)" />
    <path
       style="fill:#d38d5f;stroke-width:0.50507629"
       d="m 388.84264,580.21049 c -0.62504,-0.12039 -1.13642,-0.33705 -1.13642,-0.48147 0,-0.14443 -0.69489,-3.25378 -1.5442,-6.90968 -3.00046,-12.91566 -3.46422,-15.82377 -2.42456,-15.20395 1.50025,0.89443 29.18728,21.98075 29.47704,22.44959 0.30526,0.49392 -21.87541,0.62635 -24.37186,0.14551 z"
       id="path4109"
       inkscape:connector-curvature="0"
       transform="scale(0.26458333)" />
    <path
       style="fill:#d38d5f;stroke-width:0.71428573"
       d="m 229.63372,407.35817 c 0,-0.80861 19.60304,-53.91247 21.80701,-59.07434 0.67096,-1.57143 1.53625,-3.66071 1.92287,-4.64286 0.66465,-1.68839 0.73201,-1.70786 1.23605,-0.35714 0.75437,2.02156 6.79505,39.55894 6.41724,39.87735 -0.17146,0.1445 -6.74031,5.33763 -14.59745,11.54029 -7.85715,6.20265 -14.84822,11.7656 -15.53572,12.36209 -0.73552,0.63817 -1.25,0.75942 -1.25,0.29461 z"
       id="path4111"
       inkscape:connector-curvature="0"
       transform="scale(0.26458333)" />
    <path
       style="fill:#d3bc5f;stroke-width:0.17857143"
       d="m 416.30974,552.42051 c -0.14732,-0.0471 -0.78075,-0.25009 -1.40761,-0.45116 -0.62687,-0.20106 -3.1983,-1.28887 -5.71429,-2.41734 -2.51599,-1.12848 -5.61917,-2.47594 -6.89595,-2.99436 -2.69203,-1.09306 -7.35832,-3.18959 -9.56794,-4.2988 -1.78195,-0.89452 -2.66523,-1.76797 -2.66218,-2.63256 0.004,-1.26907 1.60261,-15.07367 5.46209,-47.18128 0.93266,-7.75893 1.96987,-16.39732 2.30492,-19.19643 1.32493,-11.06907 2.5976,-20.89458 2.76265,-21.32868 0.0956,-0.25137 0.25027,-0.45704 0.34379,-0.45704 0.31453,0 0.93804,0.97038 1.80788,2.81362 0.47535,1.00731 1.10811,2.19277 1.40613,2.63434 0.29801,0.44158 0.50328,0.90336 0.45615,1.02618 -0.0471,0.12282 0.20394,0.82576 0.55793,1.56209 0.35399,0.73633 0.82813,1.82092 1.05364,2.4102 0.22551,0.58929 1.2708,2.95982 2.32287,5.26786 3.34064,7.32874 6.71051,14.97059 14.64671,33.21429 4.25106,9.77232 8.7731,20.13839 10.04896,23.03571 1.27587,2.89732 2.3807,5.46875 2.45519,5.71429 0.0745,0.24553 0.65292,1.65178 1.28541,3.125 2.23602,5.20823 5.75079,13.84176 6.28867,15.44722 0.67316,2.00925 0.7166,2.97881 0.1432,3.19582 -1.12823,0.427 -5.3616,0.74921 -16.68666,1.27006 -7.67166,0.35283 -9.90005,0.40441 -10.41156,0.24097 z"
       id="path4113"
       inkscape:connector-curvature="0"
       transform="scale(0.26458333)" />
    <path
       style="fill:#d3bc5f;stroke-width:0.17857143"
       d="m 388.14967,536.08401 c -0.1091,-0.33181 -1.28223,-3.65686 -2.60695,-7.389 -4.36392,-12.29448 -15.48298,-45.04879 -15.48298,-45.60947 0,-1.04243 14.40355,-17.30588 24.10715,-27.22006 1.62053,-1.65571 3.24941,-3.25133 3.61973,-3.54583 l 0.67331,-0.53546 -0.0998,0.95541 c -2.02512,19.389 -9.45437,82.23168 -9.87407,83.52298 -0.13354,0.41087 -0.14451,0.40504 -0.3364,-0.17857 z"
       id="path4115"
       inkscape:connector-curvature="0"
       transform="scale(0.26458333)" />
    <path
       style="fill:#d3bc5f;stroke-width:0.17857143"
       d="m 340.4712,458.84481 c -2.06987,-2.48475 -7.16044,-10.52002 -17.7432,-28.00695 -7.92848,-13.101 -11.6223,-19.46097 -11.3378,-19.52127 0.14788,-0.0313 1.93804,0.39629 3.97814,0.95028 6.10772,1.65857 31.19852,8.86477 31.34633,9.00282 0.35049,0.32736 11.23527,32.72664 11.41305,33.97173 0.0491,0.3438 -0.0797,0.4412 -0.92512,0.69979 -0.96853,0.29624 -14.65486,3.54594 -15.55043,3.69232 -0.37603,0.0615 -0.59403,-0.0841 -1.18097,-0.78872 z"
       id="path4117"
       inkscape:connector-curvature="0"
       transform="scale(0.26458333)" />
    <path
       style="fill:#deaa87;stroke-width:0.17857143"
       d="m 355.05974,490.72755 c -20.39854,-5.36276 -47.44892,-12.75975 -58.83928,-16.08973 -2.35714,-0.68911 -4.55441,-1.32963 -4.88282,-1.42339 -0.3284,-0.0937 -0.56462,-0.20294 -0.52491,-0.24264 0.19817,-0.19818 33.54863,-7.85954 45.47286,-10.44616 1.70326,-0.36947 2.48021,-0.46757 2.71369,-0.34262 0.75676,0.40501 2.42158,2.88242 7.25606,10.79771 1.67964,2.75 4.79599,7.85268 6.92523,11.33929 2.12924,3.4866 3.88516,6.41773 3.90204,6.51361 0.0522,0.29656 -0.62682,0.26095 -2.02287,-0.10607 z"
       id="path4119"
       inkscape:connector-curvature="0"
       transform="scale(0.26458333)" />
    <path
       style="fill:#ffb380;stroke-width:0.17857143"
       d="m 308.09546,549.61235 c 0,-0.32399 3.62656,-4.40369 13.0306,-14.65878 13.30595,-14.51013 32.64696,-35.3258 37.15088,-39.98347 l 0.66645,-0.6892 3.21414,5.15348 c 7.37937,11.83193 21.17954,34.49776 24.74376,40.63994 l 0.48953,0.8436 -0.40661,0.0908 c -0.77102,0.17207 -48.99601,5.49447 -77.86197,8.59332 -0.56473,0.0606 -1.02678,0.0653 -1.02678,0.0104 z"
       id="path4121"
       inkscape:connector-curvature="0"
       transform="scale(0.26458333)" />
    <path
       style="fill:#ff7f2a;stroke-width:0.17857143"
       d="m 382.73832,578.30246 c -5.94016,-2.03337 -72.28143,-26.57275 -72.94005,-26.98024 -0.10172,-0.0629 1.86415,-0.33535 4.36862,-0.60537 2.50446,-0.27001 10.8616,-1.17443 18.57143,-2.00983 20.10276,-2.17823 28.42041,-3.004 28.57417,-2.83682 0.32438,0.35266 18.66255,26.34601 20.56506,29.14984 1.16092,1.71091 2.11077,3.21761 2.11077,3.34822 0,0.29522 -0.23081,0.28307 -1.25,-0.0658 z"
       id="path4123"
       inkscape:connector-curvature="0"
       transform="scale(0.26458333)" />
    <path
       style="fill:#ff7f2a;stroke-width:0.17857143"
       d="m 382.42906,528.92529 c -2.78557,-4.2867 -7.71541,-12.32857 -17.4272,-28.42833 l -4.72984,-7.84091 3.86708,-4.42258 c 2.12689,-2.43241 3.90932,-4.42856 3.96095,-4.43587 0.10752,-0.0152 4.86441,13.86972 10.51793,30.70098 3.8433,11.44198 5.439,16.41943 5.30637,16.55206 -0.0381,0.0381 -0.71096,-0.91833 -1.49529,-2.12535 z"
       id="path4125"
       inkscape:connector-curvature="0"
       transform="scale(0.26458333)" />
    <path
       style="fill:#ff7f2a;stroke-width:0.35714287"
       d="m 374.13371,653.71935 c -29.01176,-12.24522 -32.79503,-13.8871 -32.89635,-14.27641 -0.0491,-0.1886 0.82358,-1.12155 1.93926,-2.07321 4.31219,-3.67825 28.64157,-21.78687 53.76802,-40.02011 18.06943,-13.11226 17.84858,-12.95984 17.60819,-12.15161 -0.11249,0.37826 -0.70666,2.85738 -1.32036,5.50916 -0.9221,3.98438 -16.36377,66.06661 -17.5221,70.44643 -0.1948,0.73661 -0.46853,1.33243 -0.60828,1.32404 -0.13975,-0.008 -9.57552,-3.94962 -20.96838,-8.75829 z"
       id="path4127"
       inkscape:connector-curvature="0"
       transform="scale(0.26458333)" />
    <path
       style="fill:#ff7f2a;stroke-width:0.35714287"
       d="m 452.52432,600.84168 c 1.07912,-1.15434 10.39683,-10.93808 20.70601,-21.74165 10.30919,-10.80357 20.51556,-21.51082 22.68082,-23.79388 2.16527,-2.28306 4.09756,-4.16693 4.29399,-4.18639 0.28782,-0.0285 36.1004,24.31438 39.58992,26.91046 l 0.96227,0.7159 -8.31181,2.26463 c -25.36,6.90958 -78.81878,21.27039 -80.63324,21.66078 l -1.25,0.26894 z"
       id="path4129"
       inkscape:connector-curvature="0"
       transform="scale(0.26458333)" />
    <path
       style="fill:#ff7f2a;stroke-width:0.35714287"
       d="m 345.63298,631.56477 c 1.55551,-1.954 7.85762,-9.3803 26.00073,-30.63876 l 15.71429,-18.4126 12.5682,-0.0103 c 7.79835,-0.006 12.64996,0.12202 12.78362,0.33828 0.22989,0.37197 -3.00397,2.81366 -28.20897,21.29888 -23.00131,16.86905 -39.05262,28.50851 -39.54329,28.67446 -0.23306,0.0788 0.0754,-0.48367 0.68542,-1.25 z"
       id="path4131"
       inkscape:connector-curvature="0"
       transform="scale(0.26458333)" />
    <path
       style="fill:#aa0000;stroke-width:0.50507629"
       d="M 270.47815,921.09704 152.03777,876.25965 85.568571,797.67801 19.099373,719.09638 10.691012,703.29279 2.2826505,687.48916 V 499.17044 310.85171 L 23.520162,245.09987 C 35.200793,208.93636 45.438677,177.27163 46.271015,174.7338 l 1.513342,-4.61424 48.068239,-40.33755 C 122.29013,107.59636 145.20835,88.368085 146.78198,87.052518 l 2.86114,-2.391939 12.05647,0.986464 c 6.63105,0.542555 30.54894,2.481247 53.15088,4.308204 l 41.09442,3.32174 10.92844,-7.205666 c 6.01063,-3.963117 22.03706,-14.541841 35.61428,-23.508276 13.57722,-8.966435 24.94143,-16.292269 25.25381,-16.279631 0.31238,0.01264 59.85935,12.021568 132.32661,26.686511 89.95393,18.203664 131.89521,26.890033 132.18911,27.377415 0.23678,0.39263 15.72813,21.51039 34.42524,46.92835 l 33.99482,46.21448 2.76408,0.32885 c 1.52028,0.18088 18.56039,0.38255 37.86693,0.44818 19.30654,0.0656 41.51732,0.25856 49.35727,0.42876 l 14.25446,0.30944 -52.04285,87.09488 c -29.96345,50.1445 -51.95074,87.44709 -51.82573,87.92507 0.1194,0.45661 17.86283,30.07878 39.42984,65.82706 21.56706,35.74829 39.21281,65.35651 39.21281,65.79606 0,0.43954 -4.44442,23.18212 -9.87641,50.53904 l -9.87647,49.73986 18.03607,39.73324 c 9.91985,21.85329 18.56186,40.91678 19.20447,42.36337 l 1.16839,2.63014 -52.72718,51.66556 c -48.306,47.33343 -56.76209,55.87947 -100.84727,101.92066 l -48.12013,50.25509 -83.61592,37.73677 c -45.98877,20.7552 -83.72959,37.72894 -83.86848,37.7195 -0.1389,-0.01 -53.55072,-20.19411 -118.69293,-44.85466 z M 489.72797,731.64828 c 27.84683,-13.88995 50.70486,-25.32877 50.79563,-25.41948 0.0908,-0.0908 -1.3081,-13.65367 -3.10855,-30.13977 l -3.27355,-29.97471 1.9902,-2.56331 c 1.09466,-1.40977 8.03612,-10.06365 15.42554,-19.23078 l 13.43533,-16.66752 -0.27845,-21.97081 c -0.15314,-12.08395 -0.42098,-35.09887 -0.59518,-51.14426 l -0.31678,-29.17344 -14.45832,-12.97616 c -8.66766,-7.77916 -14.4176,-13.29727 -14.35679,-13.77796 0.0558,-0.44099 6.0292,-23.16075 13.27421,-50.48835 l 13.17275,-49.68654 -20.57711,-42.13936 -20.57712,-42.13936 -41.4338,-31.77301 -41.4338,-31.773 -26.78219,26.77868 -26.78219,26.77869 -45.44688,-31.05801 -45.44687,-31.05801 -1.34958,1.37655 c -0.74227,0.75709 -26.90445,30.06949 -58.13819,65.13865 l -56.78862,63.76212 -29.1249,59.74985 -29.12489,59.74985 7.36281,45.68589 c 5.78751,35.91114 7.55612,45.90261 8.26626,46.69876 0.49689,0.55705 14.15116,16.24088 30.34281,34.85294 16.19166,18.61206 29.84875,34.27301 30.3491,34.80208 0.87835,0.92883 1.20556,0.93716 9.48715,0.24193 l 8.57743,-0.71999 38.30254,49.65794 c 21.0664,27.3119 38.66143,50.12442 39.10008,50.69455 0.718,0.93318 8.02221,2.13451 73.23606,12.04516 39.84119,6.05476 73.16004,11.03249 74.04189,11.06163 1.16957,0.0389 15.30167,-6.77964 52.23397,-25.20144 z"
       id="path4133"
       inkscape:connector-curvature="0"
       transform="scale(0.26458333)" />
    <path
       style="fill:#784421;stroke-width:0.06313454"
       d="m 491.51631,420.69901 c -1.58162,-0.0692 -3.44241,-0.204 -7.44987,-0.53967 -3.66423,-0.30691 -4.69452,-0.39776 -17.87194,-1.57579 -4.84667,-0.43328 -8.87386,-0.78778 -8.94932,-0.78778 -0.0754,0 -0.13719,-0.0277 -0.13719,-0.0615 0,-0.19463 1.82321,-0.8772 13.06885,-4.8927 9.17669,-3.27674 10.85817,-3.86503 14.89975,-5.21286 3.88405,-1.29529 6.23272,-2.0179 6.5587,-2.0179 0.14878,0 0.76147,2.4308 1.6152,6.40816 0.77016,3.58801 1.53869,7.11167 1.67994,7.70241 0.11743,0.49109 0.11755,0.50945 0.004,0.66291 -0.0709,0.0962 -0.22805,0.18602 -0.40229,0.22995 -0.42387,0.10689 -1.69473,0.14261 -3.0163,0.0848 z"
       id="path4135"
       inkscape:connector-curvature="0"
       transform="scale(0.26458333)" />
  </g>
</svg>
